<svg width="223.36730000000003" height="175.7823" xmlns="http://www.w3.org/2000/svg" xmlns:xlink="http://www.w3.org/1999/xlink" xml:space="preserve" enable-background="new 0 0 223.3673 175.7823" version="1.1">
 <g>
  <title>Layer 1</title>
  <line id="svg_1" y2="158.651" x2="208.247" y1="158.651" x1="14.742" stroke-miterlimit="8" stroke-linejoin="round" stroke-linecap="round" stroke-width="0.75" stroke="#0D0F0F" fill="none"/>
  <line id="svg_2" y2="112.776" x2="208.247" y1="158.651" x1="208.247" stroke-miterlimit="8" stroke-linejoin="round" stroke-linecap="round" stroke-width="0.75" stroke="#0D0F0F" fill="none"/>
  <path id="svg_3" d="m160.278,63.361c-26.316,0 -47.646,21.33 -47.646,47.645c0,26.314 21.33,47.645 47.646,47.645c26.314,0 47.645,-21.33 47.645,-47.645c-0.001,-26.315 -21.331,-47.645 -47.645,-47.645l0,0z" stroke-miterlimit="8" stroke-linejoin="round" stroke-linecap="round" stroke-width="0.75" stroke="#0D0F0F" fill="none"/>
  <line id="svg_4" y2="73.111" x2="131.448" y1="158.651" x1="14.742" stroke-miterlimit="8" stroke-linejoin="round" stroke-linecap="round" stroke-width="0.75" stroke="#0D0F0F" fill="none"/>
  <line id="svg_5" y2="158.651" x2="160.016" y1="112.956" x1="160.016" stroke-miterlimit="8" stroke-linejoin="round" stroke-linecap="round" stroke-width="0.75" stroke="#0D0F0F" fill="none"/>
  <line id="svg_6" y2="112.956" x2="208.247" y1="112.956" x1="160.016" stroke-miterlimit="8" stroke-linejoin="round" stroke-linecap="round" stroke-width="0.75" stroke="#0D0F0F" fill="none"/>
  <line id="svg_7" y2="158.651" x2="208.247" y1="112.956" x1="160.016" stroke-miterlimit="8" stroke-linejoin="round" stroke-linecap="round" stroke-width="0.75" stroke="#0D0F0F" fill="none"/>
  <g id="svg_8">
   <g id="svg_9">
    <defs>
     <rect height="16.9" width="15.989" y="158.8823" id="SVGID_1_"/>
    </defs>
    <clipPath id="SVGID_00000097476129259228417530000003085280216599712937_">
     <use id="svg_10" overflow="visible" xlink:href="#SVGID_1_"/>
    </clipPath>
    <g id="svg_11" clip-path="url(#SVGID_00000097476129259228417530000003085280216599712937_)">
     <path id="svg_12" d="m12.315,162.1913l-0.723,3.065l-0.258,0l-0.028,-0.769c-0.024,-0.279 -0.079,-0.528 -0.165,-0.747s-0.215,-0.408 -0.387,-0.568c-0.172,-0.161 -0.389,-0.287 -0.651,-0.378s-0.553,-0.136 -0.873,-0.136c-0.854,0 -1.601,0.229 -2.24,0.685c-0.815,0.582 -1.455,1.403 -1.918,2.465c-0.382,0.875 -0.572,1.762 -0.572,2.66c0,0.917 0.274,1.648 0.823,2.195c0.549,0.548 1.262,0.821 2.14,0.821c0.663,0 1.254,-0.145 1.771,-0.434c0.518,-0.288 0.998,-0.732 1.442,-1.333l0.336,0c-0.524,0.814 -1.106,1.414 -1.746,1.798s-1.405,0.576 -2.298,0.576c-0.792,0 -1.493,-0.162 -2.104,-0.485c-0.611,-0.324 -1.076,-0.778 -1.396,-1.365s-0.479,-1.218 -0.479,-1.893c0,-1.033 0.283,-2.039 0.852,-3.017c0.567,-0.978 1.347,-1.745 2.337,-2.304c0.989,-0.559 1.988,-0.838 2.995,-0.838c0.472,0 1.002,0.109 1.589,0.328c0.257,0.093 0.443,0.14 0.558,0.14s0.215,-0.023 0.301,-0.069c0.086,-0.047 0.229,-0.18 0.43,-0.398l0.264,0l0,0.001z" fill="#0D0F0F"/>
    </g>
   </g>
  </g>
  <g id="svg_13">
   <g id="svg_14">
    <defs>
     <rect height="15.6" width="15.991" y="159.5323" x="152.295" id="SVGID_00000132065977414028495600000014948572408193142167_"/>
    </defs>
    <clipPath id="SVGID_00000044170316490519446650000000871238346455625909_">
     <use id="svg_15" overflow="visible" xlink:href="#SVGID_00000132065977414028495600000014948572408193142167_"/>
    </clipPath>
    <g id="svg_16" clip-path="url(#SVGID_00000044170316490519446650000000871238346455625909_)">
     <path id="svg_17" d="m157.316,163.3233l0.086,-0.258l3.099,0c1.312,0 2.284,0.146 2.916,0.439c0.633,0.293 1.137,0.755 1.514,1.386s0.565,1.308 0.565,2.028c0,0.619 -0.108,1.222 -0.325,1.806s-0.463,1.052 -0.737,1.403s-0.695,0.739 -1.263,1.162c-0.568,0.424 -1.184,0.737 -1.847,0.939s-1.491,0.304 -2.483,0.304l-4.108,0l0.093,-0.259c0.377,-0.009 0.63,-0.041 0.759,-0.098c0.19,-0.079 0.332,-0.186 0.422,-0.321c0.139,-0.195 0.294,-0.588 0.466,-1.18l1.718,-5.726c0.133,-0.451 0.2,-0.805 0.2,-1.062c0,-0.182 -0.063,-0.321 -0.187,-0.419s-0.367,-0.146 -0.729,-0.146l-0.159,0l0,0.002zm2.54,0.266l-2.104,7.087c-0.158,0.531 -0.236,0.859 -0.236,0.984c0,0.075 0.024,0.146 0.075,0.217c0.05,0.069 0.118,0.116 0.204,0.14c0.124,0.042 0.324,0.063 0.601,0.063c0.749,0 1.444,-0.075 2.087,-0.227c0.642,-0.151 1.167,-0.376 1.578,-0.674c0.582,-0.433 1.047,-1.028 1.396,-1.787c0.348,-0.759 0.522,-1.623 0.522,-2.591c0,-1.094 -0.268,-1.907 -0.802,-2.44s-1.314,-0.8 -2.341,-0.8c-0.253,-0.001 -0.579,0.009 -0.98,0.028z" fill="#0D0F0F"/>
    </g>
   </g>
  </g>
  <g id="svg_18">
   <g id="svg_19">
    <defs>
     <rect height="15.602" width="15.99" y="104.975" x="207.3773" id="SVGID_00000102505953685907709260000012332366645301319046_"/>
    </defs>
    <clipPath id="SVGID_00000180365023871648957110000001455538196850723479_">
     <use id="svg_20" overflow="visible" xlink:href="#SVGID_00000102505953685907709260000012332366645301319046_"/>
    </clipPath>
    <g id="svg_21" clip-path="url(#SVGID_00000180365023871648957110000001455538196850723479_)">
     <path id="svg_22" d="m214.9983,109.022l-1.109,3.742l0.909,0c0.648,0 1.118,-0.097 1.41,-0.29c0.29,-0.193 0.541,-0.55 0.751,-1.071l0.265,0l-0.995,3.436l-0.286,0c0.086,-0.289 0.129,-0.536 0.129,-0.74c0,-0.2 -0.042,-0.361 -0.125,-0.482c-0.084,-0.121 -0.198,-0.21 -0.344,-0.269s-0.452,-0.087 -0.92,-0.087l-0.923,0l-0.938,3.135c-0.091,0.303 -0.136,0.533 -0.136,0.691c0,0.121 0.06,0.228 0.179,0.321c0.081,0.065 0.284,0.098 0.608,0.098l0.858,0c0.931,0 1.676,-0.161 2.237,-0.482c0.561,-0.32 1.063,-0.879 1.506,-1.676l0.265,0l-0.916,2.633l-7.5,0l0.093,-0.259c0.372,-0.009 0.623,-0.041 0.752,-0.098c0.19,-0.083 0.329,-0.19 0.415,-0.321c0.129,-0.19 0.281,-0.591 0.458,-1.2l1.703,-5.712c0.134,-0.461 0.2,-0.813 0.2,-1.055c0,-0.177 -0.063,-0.315 -0.189,-0.415c-0.127,-0.101 -0.373,-0.15 -0.741,-0.15l-0.149,0l0.086,-0.258l6.971,0l-0.602,2.283l-0.265,0c0.033,-0.215 0.05,-0.394 0.05,-0.538c0,-0.246 -0.062,-0.454 -0.186,-0.621c-0.162,-0.214 -0.398,-0.377 -0.709,-0.489c-0.229,-0.084 -0.756,-0.125 -1.582,-0.125l-1.23,0l0,-0.001z" fill="#0D0F0F"/>
    </g>
   </g>
  </g>
  <g id="svg_23">
   <g id="svg_24">
    <defs>
     <rect height="15.6" width="14.69" x="208.0273" id="SVGID_00000071562149402138991130000009823147843702113678_"/>
    </defs>
    <clipPath id="SVGID_00000096761284751008441810000017316061942745564321_">
     <use id="svg_25" overflow="visible" xlink:href="#SVGID_00000071562149402138991130000009823147843702113678_"/>
    </clipPath>
    <g id="svg_26" clip-path="url(#SVGID_00000096761284751008441810000017316061942745564321_)">
     <path id="svg_27" d="m213.0913,3.795l0.1,-0.258l3.472,0c0.584,0 1.104,0.088 1.561,0.266c0.456,0.177 0.799,0.423 1.025,0.74c0.228,0.317 0.341,0.652 0.341,1.006c0,0.544 -0.202,1.037 -0.606,1.477c-0.403,0.44 -1.063,0.765 -1.976,0.974c0.588,0.214 1.021,0.498 1.298,0.852c0.277,0.354 0.416,0.742 0.416,1.166c0,0.47 -0.124,0.919 -0.373,1.348c-0.248,0.428 -0.567,0.761 -0.957,0.998c-0.39,0.238 -0.859,0.412 -1.409,0.524c-0.393,0.079 -1.005,0.119 -1.837,0.119l-3.564,0l0.093,-0.258c0.373,-0.009 0.627,-0.044 0.761,-0.105c0.191,-0.079 0.327,-0.184 0.409,-0.314c0.114,-0.177 0.268,-0.582 0.459,-1.215l1.742,-5.733c0.148,-0.484 0.223,-0.824 0.223,-1.019c0,-0.172 -0.065,-0.309 -0.197,-0.409s-0.381,-0.15 -0.749,-0.15c-0.085,-0.001 -0.161,-0.004 -0.232,-0.009zm0.043,8.596c0.516,0.065 0.92,0.098 1.212,0.098c0.746,0 1.407,-0.219 1.983,-0.656s0.864,-1.031 0.864,-1.781c0,-0.572 -0.179,-1.02 -0.534,-1.34c-0.356,-0.321 -0.932,-0.482 -1.726,-0.482c-0.153,0 -0.34,0.007 -0.56,0.021l-1.239,4.14zm1.413,-4.664c0.311,0.009 0.535,0.014 0.674,0.014c0.994,0 1.734,-0.21 2.22,-0.632s0.729,-0.949 0.729,-1.582c0,-0.479 -0.148,-0.853 -0.445,-1.121c-0.296,-0.268 -0.77,-0.402 -1.42,-0.402c-0.172,0 -0.392,0.028 -0.66,0.084l-1.098,3.639z" fill="#0D0F0F"/>
    </g>
   </g>
  </g>
  <g id="svg_28">
   <g id="svg_29">
    <defs>
     <rect height="15.6" width="14.689" y="159.5323" x="208.0278" id="SVGID_00000078767249934173457050000002378549083667843242_"/>
    </defs>
    <clipPath id="SVGID_00000029744099855076296790000002210726440359934134_">
     <use id="svg_30" overflow="visible" xlink:href="#SVGID_00000078767249934173457050000002378549083667843242_"/>
    </clipPath>
    <g id="svg_31" clip-path="url(#SVGID_00000029744099855076296790000002210726440359934134_)">
     <path id="svg_32" d="m219.1778,162.8433l-0.739,7.876c-0.038,0.368 -0.057,0.61 -0.057,0.727c0,0.186 0.035,0.328 0.107,0.426c0.091,0.135 0.214,0.235 0.369,0.3s0.417,0.098 0.785,0.098l-0.078,0.259l-3.831,0l0.079,-0.259l0.165,0c0.311,0 0.564,-0.064 0.761,-0.195c0.139,-0.088 0.246,-0.234 0.322,-0.439c0.053,-0.145 0.103,-0.484 0.15,-1.02l0.115,-1.201l-2.783,0l-0.99,1.306c-0.225,0.293 -0.365,0.504 -0.423,0.632s-0.086,0.248 -0.086,0.359c0,0.149 0.063,0.277 0.187,0.385c0.124,0.106 0.33,0.165 0.617,0.174l-0.079,0.259l-2.876,0l0.078,-0.259c0.354,-0.014 0.666,-0.129 0.937,-0.345c0.27,-0.217 0.673,-0.679 1.208,-1.387l5.811,-7.694l0.251,0l0,-0.002zm-1.42,2.326l-2.819,3.735l2.446,0l0.373,-3.735z" fill="#0D0F0F"/>
    </g>
   </g>
  </g>
  <g id="svg_33">
   <g id="svg_34">
    <defs>
     <rect height="16.898" width="15.99" y="97.827" x="145.86" id="SVGID_00000179615011524353869310000009401207837971484053_"/>
    </defs>
    <clipPath id="SVGID_00000183941099860943291310000014321922557904795032_">
     <use id="svg_35" overflow="visible" xlink:href="#SVGID_00000179615011524353869310000009401207837971484053_"/>
    </clipPath>
    <g id="svg_36" clip-path="url(#SVGID_00000183941099860943291310000014321922557904795032_)">
     <path id="svg_37" d="m155.078,101.135c0.644,0 1.214,0.136 1.71,0.408s0.886,0.675 1.167,1.208s0.422,1.086 0.422,1.658c0,1.016 -0.302,2.08 -0.905,3.194c-0.604,1.115 -1.392,1.966 -2.365,2.553c-0.974,0.586 -1.98,0.88 -3.021,0.88c-0.749,0 -1.375,-0.162 -1.879,-0.485c-0.503,-0.324 -0.875,-0.751 -1.116,-1.281c-0.241,-0.531 -0.361,-1.045 -0.361,-1.543c0,-0.885 0.219,-1.759 0.655,-2.622s0.957,-1.585 1.563,-2.165c0.605,-0.579 1.253,-1.025 1.939,-1.337c0.688,-0.311 1.417,-0.468 2.191,-0.468zm-0.244,0.448c-0.478,0 -0.944,0.115 -1.399,0.345c-0.456,0.23 -0.908,0.608 -1.356,1.132s-0.852,1.209 -1.21,2.056c-0.438,1.043 -0.658,2.027 -0.658,2.954c0,0.661 0.174,1.246 0.522,1.756s0.883,0.765 1.604,0.765c0.434,0 0.859,-0.104 1.277,-0.314c0.417,-0.209 0.853,-0.567 1.306,-1.075c0.568,-0.638 1.045,-1.451 1.432,-2.44s0.58,-1.912 0.58,-2.769c0,-0.633 -0.175,-1.192 -0.522,-1.679c-0.35,-0.488 -0.874,-0.731 -1.576,-0.731z" fill="#0D0F0F"/>
    </g>
   </g>
  </g>
  <g id="svg_38">
   <g id="svg_39">
    <defs>
     <rect height="15.599" width="15.988" y="58.175" x="117.846" id="SVGID_00000096777849482960020340000014010917083118169240_"/>
    </defs>
    <clipPath id="SVGID_00000013892012738544359190000016385608066257445537_">
     <use id="svg_40" overflow="visible" xlink:href="#SVGID_00000096777849482960020340000014010917083118169240_"/>
    </clipPath>
    <g id="svg_41" clip-path="url(#SVGID_00000013892012738544359190000016385608066257445537_)">
     <path id="svg_42" d="m125.485,62.204l-1.146,3.75l1.274,0c0.572,0 1.001,-0.086 1.284,-0.258c0.284,-0.172 0.576,-0.54 0.877,-1.104l0.272,0l-1.01,3.45l-0.286,0c0.071,-0.279 0.107,-0.51 0.107,-0.691c0,-0.284 -0.097,-0.504 -0.29,-0.66c-0.193,-0.156 -0.555,-0.234 -1.084,-0.234l-1.288,0l-0.845,2.855c-0.152,0.507 -0.229,0.845 -0.229,1.013c0,0.172 0.066,0.305 0.197,0.398s0.452,0.156 0.963,0.188l-0.086,0.258l-3.836,0l0.093,-0.258c0.372,-0.009 0.62,-0.042 0.744,-0.098c0.19,-0.079 0.332,-0.186 0.422,-0.321c0.129,-0.191 0.282,-0.584 0.458,-1.18l1.711,-5.705c0.139,-0.461 0.208,-0.821 0.208,-1.082c0,-0.121 -0.031,-0.225 -0.094,-0.311c-0.062,-0.086 -0.153,-0.15 -0.275,-0.192c-0.121,-0.042 -0.363,-0.063 -0.727,-0.063l0.086,-0.258l7.529,0l-0.716,2.395l-0.271,0c0.052,-0.289 0.078,-0.526 0.078,-0.712c0,-0.308 -0.087,-0.551 -0.261,-0.73c-0.175,-0.179 -0.397,-0.306 -0.669,-0.38c-0.191,-0.046 -0.618,-0.07 -1.281,-0.07c0,0 -1.909,0 -1.909,0z" fill="#0D0F0F"/>
    </g>
   </g>
  </g>
  <line id="svg_43" y2="16.821" x2="208.247" y1="112.776" x1="208.247" stroke-miterlimit="8" stroke-linejoin="round" stroke-linecap="round" stroke-width="0.75" stroke="#CC761F" fill="none"/>
  <line id="svg_44" y2="16.821" x2="208.247" y1="73.111" x1="131.448" stroke-miterlimit="8" stroke-linejoin="round" stroke-linecap="round" stroke-width="0.75" stroke="#CC761F" fill="none"/>
  <line id="svg_45" y2="73.111" x2="131.288" y1="112.956" x1="208.247" stroke-miterlimit="8" stroke-linejoin="round" stroke-linecap="round" stroke-width="0.75" stroke="#CC761F" fill="none"/>
 </g>
</svg>