<svg width="178.4579" height="205.142" xmlns="http://www.w3.org/2000/svg" xmlns:xlink="http://www.w3.org/1999/xlink" xml:space="preserve" enable-background="new 0 0 178.4579 205.142" version="1.1">
 <g>
  <title>Layer 1</title>
  <path id="svg_1" d="m161.9509,182.888c0,0 -2.7197,-0.2781 -4.298,1.6098c-1.5779,1.891 -0.8856,4.2785 -0.8856,4.2785" stroke-miterlimit="10" stroke-linejoin="round" stroke-linecap="round" stroke-width="0.75" stroke="#000000" fill="none"/>
  <path id="svg_2" d="m161.2622,180.9106c0,0 -3.4615,-0.3675 -5.4665,2.038c-2.0048,2.4055 -1.1232,5.4638 -1.1232,5.4638" stroke-miterlimit="10" stroke-linejoin="round" stroke-linecap="round" stroke-width="0.75" stroke="#000000" fill="none"/>
  <path id="svg_3" d="m140.1117,98.4741c0,0 -2.7197,-0.2781 -4.298,1.6098c-1.578,1.891 -0.8856,4.2785 -0.8856,4.2785" stroke-miterlimit="10" stroke-linejoin="round" stroke-linecap="round" stroke-width="0.75" stroke="#000000" fill="none"/>
  <path id="svg_4" d="m139.423,96.4967c0,0 -3.4615,-0.3675 -5.4665,2.038c-2.0048,2.4055 -1.1232,5.4638 -1.1232,5.4638" stroke-miterlimit="10" stroke-linejoin="round" stroke-linecap="round" stroke-width="0.75" stroke="#000000" fill="none"/>
  <line id="svg_5" y2="104.3625" x2="141.5743" y1="104.3625" x1="48.7193" stroke-miterlimit="10" stroke-linejoin="round" stroke-linecap="round" stroke-width="0.75" stroke="#000000" fill="none"/>
  <path id="svg_6" d="m113.9675,17.8315c0,0 -0.0222,2.7243 1.9999,4.1292c2.032,1.404 4.3559,0.4898 4.3559,0.4898" stroke-linejoin="round" stroke-linecap="round" stroke-width="0.75" stroke="#000000" fill="none"/>
  <path id="svg_7" d="m70.0151,54.0633c0,0 2.3447,1.3874 4.5751,0.3444c2.2346,-1.0521 2.6113,-3.5207 2.6113,-3.5207" stroke-linejoin="round" stroke-linecap="round" stroke-width="0.75" stroke="#000000" fill="none"/>
  <path id="svg_8" d="m78.3878,50.5178c0,0 1.1572,-2.4769 -0.1065,-4.5884c-1.2668,-2.1121 -3.7492,-2.2436 -3.7492,-2.2436" stroke-miterlimit="10" stroke-linejoin="round" stroke-linecap="round" stroke-width="0.75" stroke="#000000" fill="none"/>
  <path id="svg_9" d="m80.4817,50.5178c0,0 1.4856,-3.148 -0.1265,-5.8326c-1.6122,-2.6845 -4.7903,-2.8579 -4.7903,-2.8579" stroke-miterlimit="10" stroke-linejoin="round" stroke-linecap="round" stroke-width="0.75" stroke="#000000" fill="none"/>
  <line id="svg_10" y2="17.8315" x2="119.2833" y1="17.8315" x1="84.9293" stroke-miterlimit="10" stroke-linejoin="round" stroke-linecap="round" stroke-width="0.75" stroke="#000000" fill="none"/>
  <line id="svg_11" y2="188.7764" x2="163.8341" y1="17.8315" x1="119.2833" stroke-miterlimit="10" stroke-linejoin="round" stroke-linecap="round" stroke-width="0.75" stroke="#000000" fill="none"/>
  <line id="svg_12" y2="188.7764" x2="163.8341" y1="188.7764" x1="13.6155" stroke-miterlimit="10" stroke-linejoin="round" stroke-linecap="round" stroke-width="0.75" stroke="#000000" fill="none"/>
  <line id="svg_13" y2="57.8995" x2="129.7253" y1="49.466" x1="71.7704" stroke-miterlimit="10" stroke-linejoin="round" stroke-linecap="round" stroke-width="0.75" stroke="#000000" fill="none"/>
  <g id="svg_14">
   <g id="svg_15">
    <g id="svg_16">
     <g id="svg_17">
      <g id="svg_18">
       <g id="svg_19">
        <g id="svg_20">
         <g id="svg_21">
          <g id="svg_22">
           <g id="svg_23">
            <g id="svg_24">
             <g id="svg_25">
              <g id="svg_26">
               <g id="svg_27">
                <g id="svg_28">
                 <g id="svg_29">
                  <g id="svg_30">
                   <g id="svg_31">
                    <g id="svg_32">
                     <g id="svg_33">
                      <g id="svg_34">
                       <defs>
                        <rect height="16.694" width="15.125" y="188.4455" id="SVGID_1_"/>
                       </defs>
                       <clipPath id="SVGID_00000068651067656139203090000006938137682302155675_">
                        <use id="svg_35" overflow="visible" xlink:href="#SVGID_1_"/>
                       </clipPath>
                       <g id="svg_36" clip-path="url(#SVGID_00000068651067656139203090000006938137682302155675_)">
                        <g id="svg_37" enable-background="new    ">
                         <path id="svg_38" d="m11.5043,191.9934l-0.7607,8.4307c-0.0396,0.3936 -0.0591,0.6523 -0.0591,0.7773c0,0.1992 0.0366,0.3506 0.1108,0.4561c0.0933,0.1445 0.2202,0.251 0.3804,0.3213c0.1597,0.0693 0.4292,0.1045 0.8086,0.1045l-0.0811,0.2764l-3.9443,0l0.0815,-0.2764l0.1699,0c0.3198,0 0.5806,-0.0703 0.7827,-0.209c0.1426,-0.0947 0.2534,-0.252 0.3325,-0.4717c0.0542,-0.1543 0.1055,-0.5176 0.1548,-1.0908l0.1182,-1.2852l-2.8657,0l-1.019,1.3975c-0.2314,0.3135 -0.3765,0.5391 -0.4355,0.6758c-0.0591,0.1377 -0.0889,0.2656 -0.0889,0.3857c0,0.1592 0.064,0.2959 0.1919,0.4102c0.1284,0.1152 0.3398,0.1777 0.6353,0.1875l-0.0811,0.2764l-2.9619,0l0.0815,-0.2764c0.3643,-0.0146 0.6855,-0.1387 0.9639,-0.3701c0.2778,-0.2314 0.6929,-0.7266 1.2441,-1.4834l5.9824,-8.2363l0.2588,-0.0001l0,0zm-1.4624,2.4884l-2.9028,3.999l2.5186,0l0.3842,-3.999z"/>
                        </g>
                       </g>
                      </g>
                     </g>
                    </g>
                   </g>
                  </g>
                 </g>
                </g>
               </g>
              </g>
             </g>
            </g>
           </g>
          </g>
         </g>
        </g>
       </g>
      </g>
     </g>
    </g>
   </g>
  </g>
  <g id="svg_39">
   <g id="svg_40">
    <g id="svg_41">
     <g id="svg_42">
      <g id="svg_43">
       <g id="svg_44">
        <g id="svg_45">
         <g id="svg_46">
          <g id="svg_47">
           <g id="svg_48">
            <g id="svg_49">
             <g id="svg_50">
              <g id="svg_51">
               <g id="svg_52">
                <g id="svg_53">
                 <g id="svg_54">
                  <g id="svg_55">
                   <g id="svg_56">
                    <g id="svg_57">
                     <g id="svg_58">
                      <g id="svg_59">
                       <g id="svg_60">
                        <defs>
                         <rect height="16.695" width="15.124" y="0.692" x="71.4288" id="SVGID_00000019669329704891037600000008221220331123262105_"/>
                        </defs>
                        <clipPath id="SVGID_00000067954548265987250320000014747745297026345403_">
                         <use id="svg_61" overflow="visible" xlink:href="#SVGID_00000019669329704891037600000008221220331123262105_"/>
                        </clipPath>
                        <g id="svg_62" clip-path="url(#SVGID_00000067954548265987250320000014747745297026345403_)">
                         <g id="svg_63" enable-background="new    ">
                          <path id="svg_64" d="m76.6305,4.7468l0.103,-0.2773l3.5747,0c0.6006,0 1.1357,0.0947 1.606,0.2842c0.4703,0.1895 0.8223,0.4541 1.0562,0.793c0.2339,0.3389 0.3506,0.6973 0.3506,1.0762c0,0.583 -0.208,1.1094 -0.624,1.5801s-1.0942,0.8184 -2.0342,1.042c0.6055,0.2305 1.0508,0.5342 1.3364,0.9121c0.2856,0.3789 0.4282,0.7949 0.4282,1.248c0,0.5039 -0.1279,0.9844 -0.3838,1.4424c-0.2563,0.459 -0.585,0.8154 -0.9858,1.0693c-0.4014,0.2539 -0.8853,0.4404 -1.4512,0.5605c-0.4038,0.085 -1.0342,0.127 -1.8906,0.127l-3.6704,0l0.0962,-0.2764c0.3838,-0.0098 0.645,-0.0479 0.7827,-0.1123c0.1968,-0.085 0.3369,-0.1963 0.4209,-0.3359c0.1182,-0.1895 0.2759,-0.623 0.4727,-1.3008l1.7944,-6.1357c0.1528,-0.5186 0.229,-0.8818 0.229,-1.0908c0,-0.1846 -0.0679,-0.3301 -0.2031,-0.4375s-0.3926,-0.1611 -0.7715,-0.1611c-0.0841,-0.0001 -0.1627,-0.0021 -0.2364,-0.007zm0.0439,9.2002c0.5317,0.0693 0.9478,0.1045 1.248,0.1045c0.7681,0 1.4487,-0.2344 2.042,-0.7031c0.5933,-0.4678 0.8901,-1.1035 0.8901,-1.9053c0,-0.6133 -0.1836,-1.0918 -0.5503,-1.4355s-0.959,-0.5156 -1.7759,-0.5156c-0.1577,0 -0.3496,0.0078 -0.5762,0.0225l-1.2777,4.4325zm1.4551,-4.9931c0.3198,0.0098 0.5513,0.0156 0.6943,0.0156c1.0239,0 1.7856,-0.2266 2.2856,-0.6768c0.4995,-0.4512 0.7495,-1.0146 0.7495,-1.6924c0,-0.5137 -0.1528,-0.9131 -0.458,-1.2002c-0.3052,-0.2861 -0.7925,-0.4297 -1.4624,-0.4297c-0.1772,0 -0.4033,0.0303 -0.6792,0.0898l-1.1298,3.8937z"/>
                         </g>
                        </g>
                       </g>
                      </g>
                     </g>
                    </g>
                   </g>
                  </g>
                 </g>
                </g>
               </g>
              </g>
             </g>
            </g>
           </g>
          </g>
         </g>
        </g>
       </g>
      </g>
     </g>
    </g>
   </g>
  </g>
  <g id="svg_65">
   <g id="svg_66">
    <g id="svg_67">
     <g id="svg_68">
      <g id="svg_69">
       <g id="svg_70">
        <g id="svg_71">
         <g id="svg_72">
          <g id="svg_73">
           <g id="svg_74">
            <g id="svg_75">
             <g id="svg_76">
              <g id="svg_77">
               <g id="svg_78">
                <g id="svg_79">
                 <g id="svg_80">
                  <g id="svg_81">
                   <g id="svg_82">
                    <g id="svg_83">
                     <g id="svg_84">
                      <g id="svg_85">
                       <g id="svg_86">
                        <defs>
                         <rect height="18.079" width="16.51" x="117.8379" id="SVGID_00000152235567299180782250000009100165938187163823_"/>
                        </defs>
                        <clipPath id="SVGID_00000065062327715305350700000012441930956110999191_">
                         <use id="svg_87" overflow="visible" xlink:href="#SVGID_00000152235567299180782250000009100165938187163823_"/>
                        </clipPath>
                        <g id="svg_88" clip-path="url(#SVGID_00000065062327715305350700000012441930956110999191_)">
                         <g id="svg_89" enable-background="new    ">
                          <path id="svg_90" d="m130.559,3.5558l-0.7466,3.2793l-0.2656,0l-0.0298,-0.8223c-0.0249,-0.2988 -0.0811,-0.5645 -0.1699,-0.7988s-0.2217,-0.4375 -0.3989,-0.6084c-0.1772,-0.1719 -0.4014,-0.3066 -0.6724,-0.4033c-0.271,-0.0977 -0.5713,-0.1465 -0.9014,-0.1465c-0.8818,0 -1.6528,0.2441 -2.3125,0.7324c-0.8423,0.6221 -1.5024,1.501 -1.9805,2.6367c-0.394,0.9355 -0.5908,1.8848 -0.5908,2.8457c0,0.9805 0.2832,1.7637 0.8496,2.3486s1.3027,0.8779 2.209,0.8779c0.6846,0 1.2944,-0.1543 1.8286,-0.4639c0.5347,-0.3086 1.0308,-0.7842 1.4888,-1.4258l0.3477,0c-0.542,0.8711 -1.1431,1.5117 -1.8027,1.9229c-0.6602,0.4111 -1.4507,0.6162 -2.3721,0.6162c-0.8174,0 -1.5415,-0.1729 -2.1719,-0.5186c-0.6309,-0.3467 -1.1108,-0.833 -1.4409,-1.4609c-0.3301,-0.627 -0.4951,-1.3018 -0.4951,-2.0234c0,-1.1055 0.293,-2.1816 0.8794,-3.2266c0.5859,-1.0459 1.3901,-1.8672 2.4121,-2.4648s2.0527,-0.8965 3.0923,-0.8965c0.4878,0 1.0342,0.1172 1.6401,0.3506c0.2661,0.0996 0.458,0.1494 0.5762,0.1494c0.1182,0 0.2217,-0.0244 0.3105,-0.0742c0.0884,-0.0498 0.2363,-0.1914 0.4434,-0.4258l0.2734,0.0001l0,0z"/>
                         </g>
                        </g>
                       </g>
                      </g>
                     </g>
                    </g>
                   </g>
                  </g>
                 </g>
                </g>
               </g>
              </g>
             </g>
            </g>
           </g>
          </g>
         </g>
        </g>
       </g>
      </g>
     </g>
    </g>
   </g>
  </g>
  <g id="svg_91">
   <g id="svg_92">
    <g id="svg_93">
     <g id="svg_94">
      <g id="svg_95">
       <g id="svg_96">
        <g id="svg_97">
         <g id="svg_98">
          <g id="svg_99">
           <g id="svg_100">
            <g id="svg_101">
             <g id="svg_102">
              <g id="svg_103">
               <g id="svg_104">
                <g id="svg_105">
                 <g id="svg_106">
                  <g id="svg_107">
                   <g id="svg_108">
                    <g id="svg_109">
                     <g id="svg_110">
                      <g id="svg_111">
                       <g id="svg_112">
                        <defs>
                         <rect height="16.699" width="16.507" y="188.443" x="161.9509" id="SVGID_00000060718388298381275260000005905383388267917997_"/>
                        </defs>
                        <clipPath id="SVGID_00000023981365094429113560000016523908440841747083_">
                         <use id="svg_113" overflow="visible" xlink:href="#SVGID_00000060718388298381275260000005905383388267917997_"/>
                        </clipPath>
                        <g id="svg_114" clip-path="url(#SVGID_00000023981365094429113560000016523908440841747083_)">
                         <g id="svg_115" enable-background="new    ">
                          <path id="svg_116" d="m167.1321,192.4984l0.0889,-0.2773l3.1987,0c1.3545,0 2.3579,0.1572 3.0107,0.4717c0.6523,0.3135 1.1733,0.8076 1.5625,1.4834c0.3892,0.6748 0.5835,1.3984 0.5835,2.1709c0,0.6621 -0.1118,1.3066 -0.3359,1.9316c-0.2241,0.626 -0.478,1.126 -0.7612,1.502c-0.2832,0.377 -0.7178,0.792 -1.3037,1.2451c-0.5864,0.4531 -1.2217,0.7881 -1.9062,1.0049s-1.5391,0.3252 -2.5635,0.3252l-4.2407,0l0.0962,-0.2764c0.3887,-0.0098 0.6499,-0.0449 0.7832,-0.1045c0.1968,-0.085 0.3423,-0.1992 0.4355,-0.3438c0.1431,-0.21 0.3032,-0.6309 0.4805,-1.2637l1.7729,-6.1279c0.1377,-0.4834 0.207,-0.8623 0.207,-1.1357c0,-0.1943 -0.064,-0.3447 -0.1924,-0.4492c-0.1279,-0.1045 -0.3794,-0.1562 -0.7534,-0.1562l-0.1626,-0.0001l0,0zm2.6226,0.2832l-2.1719,7.5859c-0.1626,0.5684 -0.2437,0.9199 -0.2437,1.0537c0,0.0801 0.0259,0.1572 0.0776,0.2324c0.0518,0.0742 0.1216,0.124 0.2104,0.1494c0.1279,0.0449 0.335,0.0674 0.6206,0.0674c0.7729,0 1.4912,-0.0811 2.1533,-0.2432c0.6626,-0.1621 1.2056,-0.4023 1.6294,-0.7217c0.6006,-0.4629 1.0811,-1.1006 1.4404,-1.9131s0.5396,-1.7363 0.5396,-2.7725c0,-1.1709 -0.2759,-2.042 -0.8276,-2.6123s-1.3569,-0.8555 -2.416,-0.8555c-0.2607,0.0002 -0.5981,0.01 -1.0121,0.0295z"/>
                         </g>
                        </g>
                       </g>
                      </g>
                     </g>
                    </g>
                   </g>
                  </g>
                 </g>
                </g>
               </g>
              </g>
             </g>
            </g>
           </g>
          </g>
         </g>
        </g>
       </g>
      </g>
     </g>
    </g>
   </g>
  </g>
  <g id="svg_117">
   <g id="svg_118">
    <g id="svg_119">
     <g id="svg_120">
      <g id="svg_121">
       <g id="svg_122">
        <g id="svg_123">
         <g id="svg_124">
          <g id="svg_125">
           <g id="svg_126">
            <g id="svg_127">
             <g id="svg_128">
              <g id="svg_129">
               <g id="svg_130">
                <g id="svg_131">
                 <g id="svg_132">
                  <g id="svg_133">
                   <g id="svg_134">
                    <g id="svg_135">
                     <g id="svg_136">
                      <g id="svg_137">
                       <g id="svg_138">
                        <defs>
                         <rect height="16.688" width="15.125" y="41.122" x="54.3383" id="SVGID_00000036221585397394461600000007667366643935260333_"/>
                        </defs>
                        <clipPath id="SVGID_00000175303618850802645060000006596477835422617496_">
                         <use id="svg_139" overflow="visible" xlink:href="#SVGID_00000036221585397394461600000007667366643935260333_"/>
                        </clipPath>
                        <g id="svg_140" clip-path="url(#SVGID_00000175303618850802645060000006596477835422617496_)">
                         <g id="svg_141" enable-background="new    ">
                          <path id="svg_142" d="m59.6853,44.9016l3.9443,0c1.0337,0 1.8066,0.2256 2.3188,0.6768c0.5122,0.4512 0.7681,1 0.7681,1.6475c0,0.5137 -0.1626,1.0117 -0.4873,1.4951c-0.3252,0.4834 -0.8076,0.876 -1.4478,1.1768c-0.6401,0.3018 -1.332,0.4521 -2.0752,0.4521c-0.4629,0 -1.0513,-0.084 -1.7651,-0.2539l-0.7979,2.7656c-0.187,0.6572 -0.2808,1.0908 -0.2808,1.3008c0,0.1592 0.0664,0.291 0.1997,0.3955c0.1328,0.1045 0.4502,0.1719 0.9526,0.2021l-0.0737,0.2764l-3.981,0l0.0811,-0.2764c0.522,0 0.8853,-0.0908 1.0894,-0.2734c0.2046,-0.1816 0.4248,-0.6836 0.6611,-1.5059l1.6543,-5.7695c0.1968,-0.6923 0.2954,-1.1561 0.2954,-1.3895c0,-0.1748 -0.0698,-0.3193 -0.2104,-0.4336c-0.1401,-0.1152 -0.4492,-0.1846 -0.9268,-0.21l0.0812,-0.2765zm1.3814,4.7237c0.5562,0.1445 1.0044,0.2168 1.3442,0.2168c0.5366,0 1.0254,-0.1123 1.4658,-0.3359c0.4409,-0.2246 0.7856,-0.5605 1.0342,-1.0098c0.2485,-0.4482 0.373,-0.9141 0.373,-1.3975c0,-0.5029 -0.1528,-0.9014 -0.458,-1.1953s-0.7681,-0.4414 -1.3887,-0.4414c-0.335,0 -0.7412,0.043 -1.2188,0.127l-1.1517,4.0361z"/>
                         </g>
                        </g>
                       </g>
                      </g>
                     </g>
                    </g>
                   </g>
                  </g>
                 </g>
                </g>
               </g>
              </g>
             </g>
            </g>
           </g>
          </g>
         </g>
        </g>
       </g>
      </g>
     </g>
    </g>
   </g>
  </g>
  <g id="svg_143">
   <g id="svg_144">
    <g id="svg_145">
     <g id="svg_146">
      <g id="svg_147">
       <g id="svg_148">
        <g id="svg_149">
         <g id="svg_150">
          <g id="svg_151">
           <g id="svg_152">
            <g id="svg_153">
             <g id="svg_154">
              <g id="svg_155">
               <g id="svg_156">
                <g id="svg_157">
                 <g id="svg_158">
                  <g id="svg_159">
                   <g id="svg_160">
                    <g id="svg_161">
                     <g id="svg_162">
                      <g id="svg_163">
                       <g id="svg_164">
                        <defs>
                         <rect height="20.838" width="16.506" y="51.5411" x="131.8587" id="SVGID_00000005257457521095713120000012599642883707911359_"/>
                        </defs>
                        <clipPath id="SVGID_00000113340068108246626810000003463416945289457558_">
                         <use id="svg_165" overflow="visible" xlink:href="#SVGID_00000005257457521095713120000012599642883707911359_"/>
                        </clipPath>
                        <g id="svg_166" clip-path="url(#SVGID_00000113340068108246626810000003463416945289457558_)">
                         <g id="svg_167" enable-background="new    ">
                          <path id="svg_168" d="m138.3621,65.6765l-1.9062,1.5596c0.3003,-0.0547 0.5786,-0.082 0.835,-0.082c0.2461,0 0.4736,0.0146 0.6831,0.0449c0.2095,0.0293 0.6577,0.123 1.3447,0.2793c0.687,0.1572 1.2866,0.2354 1.7993,0.2354c0.5464,0 1.0107,-0.0957 1.3926,-0.2871c0.3818,-0.1924 0.7524,-0.5117 1.1118,-0.959l0.2441,0.1191c-0.5073,0.7363 -1.106,1.2676 -1.7954,1.5928c-0.6899,0.3262 -1.4214,0.4893 -2.1943,0.4893c-0.4287,0 -1.0151,-0.085 -1.7588,-0.2539c-1.1377,-0.2539 -1.9331,-0.3809 -2.3862,-0.3809c-0.1724,0 -0.313,0.0127 -0.4214,0.0371c-0.1084,0.0254 -0.2705,0.085 -0.4873,0.1797l-0.1699,-0.2012l3.0293,-2.418c-0.936,-0.1299 -1.6455,-0.5449 -2.1279,-1.2461c-0.4829,-0.7012 -0.7241,-1.4502 -0.7241,-2.2461c0,-1.0889 0.3262,-2.2158 0.979,-3.3799c0.6523,-1.1641 1.4873,-2.0654 2.5044,-2.7051c1.0171,-0.6387 2.0161,-0.959 2.9961,-0.959c0.729,0 1.3511,0.1494 1.8657,0.4482s0.9126,0.7324 1.1934,1.3018c0.2808,0.5703 0.4209,1.1533 0.4209,1.75c0,1.1445 -0.3228,2.3027 -0.9678,3.4766c-0.6455,1.1748 -1.4473,2.0635 -2.4048,2.668c-0.9586,0.6045 -1.9767,0.916 -3.0553,0.9365zm2.7705,-10.1035c-0.4927,0 -0.9741,0.124 -1.4443,0.3701c-0.4707,0.2461 -0.9375,0.6484 -1.4004,1.208c-0.4629,0.5605 -0.8789,1.293 -1.2485,2.1982c-0.4482,1.1143 -0.6724,2.166 -0.6724,3.1562c0,0.7061 0.1797,1.3311 0.5396,1.876c0.3594,0.5449 0.9111,0.8174 1.6548,0.8174c0.4434,0 0.8818,-0.1123 1.3154,-0.3359c0.4331,-0.2236 0.8813,-0.6045 1.3447,-1.1416c0.5908,-0.6865 1.0859,-1.5596 1.4849,-2.6191s0.5986,-2.0439 0.5986,-2.9551c0,-0.6709 -0.1802,-1.2676 -0.5396,-1.79s-0.9038,-0.7842 -1.6328,-0.7842z"/>
                         </g>
                        </g>
                       </g>
                      </g>
                     </g>
                    </g>
                   </g>
                  </g>
                 </g>
                </g>
               </g>
              </g>
             </g>
            </g>
           </g>
          </g>
         </g>
        </g>
       </g>
      </g>
     </g>
    </g>
   </g>
  </g>
  <g id="svg_169">
   <g id="svg_170">
    <g id="svg_171">
     <g id="svg_172">
      <g id="svg_173">
       <g id="svg_174">
        <g id="svg_175">
         <g id="svg_176">
          <g id="svg_177">
           <g id="svg_178">
            <g id="svg_179">
             <g id="svg_180">
              <g id="svg_181">
               <g id="svg_182">
                <g id="svg_183">
                 <g id="svg_184">
                  <g id="svg_185">
                   <g id="svg_186">
                    <g id="svg_187">
                     <g id="svg_188">
                      <g id="svg_189">
                       <g id="svg_190">
                        <defs>
                         <rect height="18.081" width="17.896" y="94.054" x="143.5712" id="SVGID_00000116213410769145873210000017758257282549472914_"/>
                        </defs>
                        <clipPath id="SVGID_00000133513191318531181670000012401608441271504021_">
                         <use id="svg_191" overflow="visible" xlink:href="#SVGID_00000116213410769145873210000017758257282549472914_"/>
                        </clipPath>
                        <g id="svg_192" clip-path="url(#SVGID_00000133513191318531181670000012401608441271504021_)">
                         <g id="svg_193" enable-background="new    ">
                          <path id="svg_194" d="m151.1425,97.8307l3.0967,7.9395l1.6777,-5.9307c0.1377,-0.4873 0.207,-0.8662 0.207,-1.1348c0,-0.1846 -0.0645,-0.3291 -0.1924,-0.4336s-0.3672,-0.1562 -0.7168,-0.1562c-0.0591,0 -0.1206,-0.0029 -0.1846,-0.0078l0.0811,-0.2764l3.2222,0l-0.0884,0.2764c-0.3354,-0.0049 -0.584,0.0303 -0.7466,0.1045c-0.2314,0.1045 -0.4038,0.2393 -0.5171,0.4033c-0.1582,0.2344 -0.3179,0.6426 -0.4805,1.2246l-2.3579,8.3506l-0.2661,0l-3.333,-8.5439l-1.7812,6.3105c-0.1328,0.4785 -0.1997,0.8438 -0.1997,1.0986c0,0.1885 0.0605,0.332 0.1812,0.4287c0.1206,0.0977 0.4077,0.1631 0.8613,0.1982l-0.0742,0.2764l-3.1484,0l0.1035,-0.2764c0.394,-0.0098 0.6577,-0.0449 0.791,-0.1045c0.2017,-0.0898 0.3521,-0.207 0.4507,-0.3516c0.1431,-0.2188 0.3032,-0.6416 0.4805,-1.2695l1.9883,-7.043c-0.1924,-0.2988 -0.3979,-0.5039 -0.6172,-0.6162s-0.5605,-0.1758 -1.0239,-0.1904l0.0815,-0.2764l2.5053,0.0001l0,0l0,0z"/>
                         </g>
                        </g>
                       </g>
                      </g>
                     </g>
                    </g>
                   </g>
                  </g>
                 </g>
                </g>
               </g>
              </g>
             </g>
            </g>
           </g>
          </g>
         </g>
        </g>
       </g>
      </g>
     </g>
    </g>
   </g>
  </g>
  <g id="svg_195">
   <g id="svg_196">
    <g id="svg_197">
     <g id="svg_198">
      <g id="svg_199">
       <g id="svg_200">
        <g id="svg_201">
         <g id="svg_202">
          <g id="svg_203">
           <g id="svg_204">
            <g id="svg_205">
             <g id="svg_206">
              <g id="svg_207">
               <g id="svg_208">
                <g id="svg_209">
                 <g id="svg_210">
                  <defs>
                   <rect height="16.697" width="20.65" y="94.746" x="27.0715" id="SVGID_00000054949523965503703950000003629739686665081732_"/>
                  </defs>
                  <clipPath id="SVGID_00000095336233105162317330000001007181165908869037_">
                   <use id="svg_211" overflow="visible" xlink:href="#SVGID_00000054949523965503703950000003629739686665081732_"/>
                  </clipPath>
                  <g id="svg_212" clip-path="url(#SVGID_00000095336233105162317330000001007181165908869037_)">
                   <g id="svg_213" enable-background="new    ">
                    <path id="svg_214" d="m34.6255,98.5329l0.9243,8.1621l5.8193,-8.1621l2.4478,0l0,0.2773c-0.5322,0.0342 -0.8457,0.0693 -0.939,0.1045c-0.1631,0.0645 -0.312,0.1943 -0.4478,0.3887c-0.1353,0.1943 -0.2822,0.5674 -0.4399,1.1211l-1.856,6.4268c-0.1084,0.374 -0.1626,0.668 -0.1626,0.8818c0,0.1943 0.0664,0.3418 0.1997,0.4414c0.187,0.1445 0.4829,0.2168 0.8872,0.2168l0.1777,0l-0.0669,0.2764l-4.2222,0l0.0737,-0.2764l0.1997,0c0.3745,0 0.6606,-0.0547 0.8579,-0.165c0.1528,-0.0791 0.2896,-0.2295 0.4102,-0.4521c0.1211,-0.2217 0.2896,-0.7129 0.5068,-1.4756l1.6562,-5.874l-5.8491,8.2432l-0.2959,0l-0.939,-8.2432l-1.7896,6.2705c-0.1528,0.5332 -0.229,0.8916 -0.229,1.0762c0,0.1836 0.0664,0.3252 0.1997,0.4219c0.1328,0.0977 0.4556,0.1631 0.9683,0.1982l-0.0811,0.2764l-3.3056,0l0.0815,-0.2764l0.1997,0c0.4878,0 0.8403,-0.125 1.0571,-0.374c0.1577,-0.1797 0.3232,-0.5674 0.4956,-1.166l2.1816,-7.5557c-0.1631,-0.1689 -0.3184,-0.2842 -0.4658,-0.3438c-0.1479,-0.0596 -0.4219,-0.1074 -0.8208,-0.1416l0.0737,-0.2773l2.4926,-0.0001l0,0z"/>
                   </g>
                  </g>
                 </g>
                </g>
               </g>
              </g>
             </g>
            </g>
           </g>
          </g>
         </g>
        </g>
       </g>
      </g>
     </g>
    </g>
   </g>
  </g>
  <line id="svg_215" y2="188.7764" x2="13.6155" y1="17.8315" x1="84.9293" stroke-miterlimit="10" stroke-linejoin="round" stroke-linecap="round" stroke-width="0.75" stroke="#000000" fill="none"/>
  <circle id="svg_216" r="31.0102" cy="43.2056" cx="102.3311" stroke-miterlimit="10" stroke-linejoin="round" stroke-linecap="round" stroke-width="0.75" stroke="#CC761F" fill="none"/>
  <g id="svg_217" fill-opacity="0.4" fill="#000">
   <path id="svg_218" d="m84.38235,225.52941c0,0.8 0,1.6 0,2.5c-1.3,0.2 -0.6,-1.5 -0.7,-2.3c0,-1.4 0,-2.8 0,-4.2c0.8,-0.4 0.8,1.3 1.4,0c2.2,-1 3.7,2.2 2.4,3.9c-0.6,1 -2.4,1.2 -3.1,0l0,0.1zm2.6,-1.6c0.5,-2.5 -3.7,-1.9 -2.6,0.4c0,2.1 3.1,1.6 2.6,-0.4z"/>
   <path id="svg_219" d="m93.28235,223.62941c-0.4,0.8 -1.9,0.1 -2.8,0.3c-2,-0.1 0.3,2.4 1.5,1.5c2.5,0 -1.4,1.6 -2.3,0.2c-1.9,-1.5 -0.3,-5.3 2.1,-4.4c0.9,0.2 1.4,1.2 1.4,2.2l0.1,0.2zm-0.7,-0.2c0.6,-2.3 -4,-1 -2.1,0c0.7,0 1.4,0 2.1,0z"/>
   <path id="svg_220" d="m98.18235,225.62941c0.6,0 1.3,0 2,0c0,-1.3 0,-2.7 0,-4.1c1.3,-0.2 0.6,1.5 0.7,2.3c0,0.8 0,1.6 0,2.4c-2.1,0 -4.2,0 -6.4,0c0,-1.5 0,-3.1 0,-4.7c1.3,-0.2 0.6,1.5 0.7,2.3c0.1,0.5 -0.2,1.6 0.2,1.7c0.5,-0.1 1.6,0.2 1.8,-0.2c0,-1.3 0,-2.6 0,-3.9c1.3,-0.2 0.6,1.5 0.7,2.3c0,0.5 0,1.1 0,1.7l0.3,0.2z"/>
   <path id="svg_221" d="m104.58235,226.72941c0.3,1.4 -3,1.7 -1.7,0.7c1.5,-0.2 1,-1.9 0.5,-2.8c-0.4,-1 -0.8,-2 -1.2,-3.1c1.2,-0.2 1.2,1.4 1.7,2.2c0.2,0.2 0.4,1.9 0.7,1.2c0.4,-1.1 0.9,-2.2 1.3,-3.4c1.4,-0.2 0,1.5 0,2.3c-0.3,0.9 -0.7,1.9 -1.1,2.9l-0.2,0z"/>
   <path id="svg_222" d="m111.88235,223.62941c-0.4,0.8 -1.9,0.1 -2.8,0.3c-2,-0.1 0.3,2.4 1.5,1.5c2.5,0 -1.4,1.6 -2.3,0.2c-1.9,-1.5 -0.3,-5.3 2.1,-4.4c0.9,0.2 1.4,1.2 1.4,2.2l0.1,0.2zm-0.7,-0.2c0.6,-2.3 -4,-1 -2.1,0c0.7,0 1.4,0 2.1,0z"/>
   <path id="svg_223" d="m113.18235,226.22941c0,-1.5 0,-3.1 0,-4.7c1.1,0 2.2,0 3.3,0c0,1.5 -3.3,-0.4 -2.5,1.8c0,0.9 0,1.9 0,2.9c-0.2,0 -0.5,0 -0.7,0l-0.1,0z"/>
   <path id="svg_224" d="m117.38235,225.32941c0.7,1.4 4.2,-0.8 2.1,-1.2c-0.5,-0.1 -2.2,0.3 -1.5,-0.6c1,0.1 3.1,0 1.4,-1.2c-0.6,-0.7 -2.8,0.8 -1.8,-0.6c2,-0.9 4.2,1.2 3.3,3.2c-0.2,1.5 -3.5,2.3 -3.6,0.7l0,-0.1l0,0l0,0l0.1,-0.2z"/>
   <path id="svg_225" d="m122.68235,225.12941c1.6,-0.5 0.6,2.3 0,0.6c0,-0.2 0,-0.4 0,-0.6z"/>
   <path id="svg_226" d="m126.08235,225.52941c0,0.8 0,1.6 0,2.5c-1.3,0.2 -0.6,-1.5 -0.7,-2.3c0,-1.4 0,-2.8 0,-4.2c0.8,-0.4 0.8,1.3 1.4,0c2.2,-1 3.7,2.2 2.4,3.9c-0.6,1 -2.4,1.2 -3.1,0l0,0.1zm2.6,-1.6c0.5,-2.5 -3.7,-1.9 -2.6,0.4c0,2.1 3.1,1.6 2.6,-0.4z"/>
   <path id="svg_227" d="m131.38235,223.82941c-0.8,1.9 2.7,2.3 2,0.1c0.6,-2.4 -2.3,-2.7 -2,-0.1zm2,4.2c0,-0.8 0,-1.6 0,-2.4c-1.8,2.2 -3.8,-1.7 -2.6,-3.3c0.4,-1.8 3,0.3 2.6,-1.1c-0.4,-1.1 0.9,-1.8 0.8,-0.3c-0.7,2.2 2.1,-0.6 2.4,1.4c1.2,1.6 -0.3,5.2 -2.4,3.5c-0.4,0.6 0.6,2.5 -0.8,2.1l0,0.1zm2.8,-4.2c0.8,-1.9 -2.7,-2.3 -2,-0.1c-0.6,2.4 2.3,2.7 2,0.1z"/>
  </g>
 </g>
</svg>