<svg width="178.4579" height="205.142" xmlns="http://www.w3.org/2000/svg" xmlns:xlink="http://www.w3.org/1999/xlink" xml:space="preserve" enable-background="new 0 0 178.4579 205.142" version="1.1">
 <g>
  <title>Layer 1</title>
  <g id="svg_1">
   <line id="svg_2" y2="51.621" x2="82.9183" y1="45.19" x1="78.7018" stroke-miterlimit="10" stroke-linejoin="round" stroke-linecap="round" stroke-width="0.75" stroke="#007EA5" fill="none"/>
   <line id="svg_3" y2="55.8358" x2="76.4898" y1="51.621" x1="82.9183" stroke-miterlimit="10" stroke-linejoin="round" stroke-linecap="round" stroke-width="0.75" stroke="#007EA5" fill="none"/>
  </g>
  <path id="svg_4" d="m57.3822,103.9887c0,0 1.0193,-2.9383 -0.669,-5.1692c-1.6883,-2.2308 -4.5281,-2.0816 -4.5281,-2.0816" stroke-miterlimit="10" stroke-linejoin="round" stroke-linecap="round" stroke-width="0.75" stroke="#000000" fill="none"/>
  <path id="svg_5" d="m21.972,188.4455c0,0 1.0193,-2.9382 -0.669,-5.1692c-1.6883,-2.2308 -4.5281,-2.0816 -4.5281,-2.0816" stroke-miterlimit="10" stroke-linejoin="round" stroke-linecap="round" stroke-width="0.75" stroke="#000000" fill="none"/>
  <line id="svg_6" y2="188.7764" x2="128.7924" y1="17.8315" x1="84.9293" stroke-miterlimit="10" stroke-linejoin="round" stroke-linecap="round" stroke-width="0.75" stroke="#000000" fill="none"/>
  <line id="svg_7" y2="49.466" x2="71.7704" y1="104.3625" x1="141.5743" stroke-miterlimit="10" stroke-linejoin="round" stroke-linecap="round" stroke-width="0.75" stroke="#000000" fill="none"/>
  <g id="svg_8">
   <line id="svg_9" y2="58.684" x2="118.4422" y1="63.6985" x1="124.2723" stroke-miterlimit="10" stroke-linejoin="round" stroke-linecap="round" stroke-width="0.75" stroke="#CC761F" fill="none"/>
   <line id="svg_10" y2="52.8561" x2="123.4548" y1="58.684" x1="118.4422" stroke-miterlimit="10" stroke-linejoin="round" stroke-linecap="round" stroke-width="0.75" stroke="#CC761F" fill="none"/>
  </g>
  <line id="svg_11" y2="104.3625" x2="141.5743" y1="104.3625" x1="48.7193" stroke-miterlimit="10" stroke-linejoin="round" stroke-linecap="round" stroke-width="0.75" stroke="#000000" fill="none"/>
  <path id="svg_12" d="m113.1729,22.2886c0,0 0.9065,2.5692 3.2861,3.2018c2.3886,0.6284 4.2625,-1.0222 4.2625,-1.0222" stroke-linejoin="round" stroke-linecap="round" stroke-width="0.75" stroke="#000000" fill="none"/>
  <path id="svg_13" d="m82.3104,25.0287c0,0 2.1621,1.6577 4.5011,0.8887c2.3443,-0.7775 3.0133,-3.1834 3.0133,-3.1834" stroke-linejoin="round" stroke-linecap="round" stroke-width="0.75" stroke="#000000" fill="none"/>
  <g id="svg_14">
   <path id="svg_15" d="m156.8524,163.8433c0,0 -2.3916,-1.3244 -4.5849,-0.2085c-2.194,1.1188 -2.4955,3.5864 -2.4955,3.5864" stroke-miterlimit="10" stroke-linejoin="round" stroke-linecap="round" stroke-width="0.75" stroke="#000000" fill="none"/>
   <path id="svg_16" d="m156.5429,161.7345c0,0 -2.7149,-1.5171 -5.2065,-0.2447s-2.841,4.0946 -2.841,4.0946" stroke-miterlimit="10" stroke-linejoin="round" stroke-linecap="round" stroke-width="0.75" stroke="#000000" fill="none"/>
  </g>
  <path id="svg_17" d="m30.1558,169.1191c0,0 0.125,-2.731 -1.8486,-4.2009c-1.9766,-1.4693 -4.3215,-0.644 -4.3215,-0.644" stroke-miterlimit="10" stroke-linejoin="round" stroke-linecap="round" stroke-width="0.75" stroke="#000000" fill="none"/>
  <path id="svg_18" d="m31.908,167.9056c0,0 0.1542,-3.1062 -2.0921,-4.774c-2.2463,-1.6677 -4.9302,-0.7279 -4.9302,-0.7279" stroke-miterlimit="10" stroke-linejoin="round" stroke-linecap="round" stroke-width="0.75" stroke="#000000" fill="none"/>
  <line id="svg_19" y2="188.7764" x2="13.6155" y1="17.8315" x1="84.9293" stroke-miterlimit="10" stroke-linejoin="round" stroke-linecap="round" stroke-width="0.75" stroke="#CC761F" fill="none"/>
  <line id="svg_20" y2="17.8315" x2="119.2833" y1="17.8315" x1="84.9293" stroke-miterlimit="10" stroke-linejoin="round" stroke-linecap="round" stroke-width="0.75" stroke="#000000" fill="none"/>
  <line id="svg_21" y2="189.0495" x2="163.9053" y1="17.8315" x1="119.2833" stroke-miterlimit="10" stroke-linejoin="round" stroke-linecap="round" stroke-width="0.75" stroke="#007EA5" fill="none"/>
  <line id="svg_22" y2="188.7764" x2="163.3739" y1="188.7764" x1="13.6155" stroke-miterlimit="10" stroke-linejoin="round" stroke-linecap="round" stroke-width="0.75" stroke="#000000" fill="none"/>
  <line id="svg_23" y2="57.8995" x2="129.7253" y1="49.466" x1="71.7704" stroke-miterlimit="10" stroke-linejoin="round" stroke-linecap="round" stroke-width="0.75" stroke="#000000" fill="none"/>
  <line id="svg_24" y2="57.8995" x2="129.7253" y1="17.8315" x1="84.9293" stroke-miterlimit="10" stroke-linejoin="round" stroke-linecap="round" stroke-width="0.75" stroke="#CC761F" fill="none"/>
  <line id="svg_25" y2="188.7764" x2="13.6155" y1="57.8995" x1="129.7253" stroke-miterlimit="10" stroke-linejoin="round" stroke-linecap="round" stroke-width="0.75" stroke="#CC761F" fill="none"/>
  <line id="svg_26" y2="49.466" x2="71.7704" y1="17.8315" x1="119.2833" stroke-miterlimit="10" stroke-linejoin="round" stroke-linecap="round" stroke-width="0.75" stroke="#007EA5" fill="none"/>
  <line id="svg_27" y2="188.7764" x2="163.7472" y1="49.466" x1="71.7704" stroke-miterlimit="10" stroke-linejoin="round" stroke-linecap="round" stroke-width="0.75" stroke="#007EA5" fill="none"/>
  <g id="svg_28">
   <g id="svg_29">
    <g id="svg_30">
     <g id="svg_31">
      <g id="svg_32">
       <g id="svg_33">
        <g id="svg_34">
         <g id="svg_35">
          <g id="svg_36">
           <g id="svg_37">
            <g id="svg_38">
             <g id="svg_39">
              <g id="svg_40">
               <g id="svg_41">
                <g id="svg_42">
                 <g id="svg_43">
                  <g id="svg_44">
                   <g id="svg_45">
                    <g id="svg_46">
                     <g id="svg_47">
                      <g id="svg_48">
                       <defs>
                        <rect height="16.694" width="15.125" y="188.4455" id="SVGID_1_"/>
                       </defs>
                       <clipPath id="SVGID_00000080171240755887628950000002405640106118807718_">
                        <use id="svg_49" overflow="visible" xlink:href="#SVGID_1_"/>
                       </clipPath>
                       <g id="svg_50" clip-path="url(#SVGID_00000080171240755887628950000002405640106118807718_)">
                        <g id="svg_51" enable-background="new    ">
                         <path id="svg_52" d="m11.5043,191.9934l-0.7607,8.4307c-0.0396,0.3936 -0.0591,0.6523 -0.0591,0.7773c0,0.1992 0.0366,0.3506 0.1108,0.4561c0.0933,0.1445 0.2202,0.251 0.3804,0.3213c0.1597,0.0693 0.4292,0.1045 0.8086,0.1045l-0.0811,0.2764l-3.9443,0l0.0815,-0.2764l0.1699,0c0.3198,0 0.5806,-0.0703 0.7827,-0.209c0.1426,-0.0947 0.2534,-0.252 0.3325,-0.4717c0.0542,-0.1543 0.1055,-0.5176 0.1548,-1.0908l0.1182,-1.2852l-2.8657,0l-1.019,1.3975c-0.2314,0.3135 -0.3765,0.5391 -0.4355,0.6758c-0.0591,0.1377 -0.0889,0.2656 -0.0889,0.3857c0,0.1592 0.064,0.2959 0.1919,0.4102c0.1284,0.1152 0.3398,0.1777 0.6353,0.1875l-0.0811,0.2764l-2.9619,0l0.0815,-0.2764c0.3643,-0.0146 0.6855,-0.1387 0.9639,-0.3701c0.2778,-0.2314 0.6929,-0.7266 1.2441,-1.4834l5.9824,-8.2363l0.2588,-0.0001l0,0zm-1.4624,2.4884l-2.9028,3.999l2.5186,0l0.3842,-3.999z"/>
                        </g>
                       </g>
                      </g>
                     </g>
                    </g>
                   </g>
                  </g>
                 </g>
                </g>
               </g>
              </g>
             </g>
            </g>
           </g>
          </g>
         </g>
        </g>
       </g>
      </g>
     </g>
    </g>
   </g>
  </g>
  <g id="svg_53">
   <g id="svg_54">
    <g id="svg_55">
     <g id="svg_56">
      <g id="svg_57">
       <g id="svg_58">
        <g id="svg_59">
         <g id="svg_60">
          <g id="svg_61">
           <g id="svg_62">
            <g id="svg_63">
             <g id="svg_64">
              <g id="svg_65">
               <g id="svg_66">
                <g id="svg_67">
                 <g id="svg_68">
                  <g id="svg_69">
                   <g id="svg_70">
                    <g id="svg_71">
                     <g id="svg_72">
                      <g id="svg_73">
                       <g id="svg_74">
                        <defs>
                         <rect height="16.695" width="15.124" y="0.692" x="71.4288" id="SVGID_00000057108862008611672430000008714050384179911058_"/>
                        </defs>
                        <clipPath id="SVGID_00000168833501659747316420000003144119730262832535_">
                         <use id="svg_75" overflow="visible" xlink:href="#SVGID_00000057108862008611672430000008714050384179911058_"/>
                        </clipPath>
                        <g id="svg_76" clip-path="url(#SVGID_00000168833501659747316420000003144119730262832535_)">
                         <g id="svg_77" enable-background="new    ">
                          <path id="svg_78" d="m76.6305,4.7468l0.103,-0.2773l3.5747,0c0.6006,0 1.1357,0.0947 1.606,0.2842c0.4703,0.1895 0.8223,0.4541 1.0562,0.793c0.2339,0.3389 0.3506,0.6973 0.3506,1.0762c0,0.583 -0.208,1.1094 -0.624,1.5801s-1.0942,0.8184 -2.0342,1.042c0.6055,0.2305 1.0508,0.5342 1.3364,0.9121c0.2856,0.3789 0.4282,0.7949 0.4282,1.248c0,0.5039 -0.1279,0.9844 -0.3838,1.4424c-0.2563,0.459 -0.585,0.8154 -0.9858,1.0693c-0.4014,0.2539 -0.8853,0.4404 -1.4512,0.5605c-0.4038,0.085 -1.0342,0.127 -1.8906,0.127l-3.6704,0l0.0962,-0.2764c0.3838,-0.0098 0.645,-0.0479 0.7827,-0.1123c0.1968,-0.085 0.3369,-0.1963 0.4209,-0.3359c0.1182,-0.1895 0.2759,-0.623 0.4727,-1.3008l1.7944,-6.1357c0.1528,-0.5186 0.229,-0.8818 0.229,-1.0908c0,-0.1846 -0.0679,-0.3301 -0.2031,-0.4375s-0.3926,-0.1611 -0.7715,-0.1611c-0.0841,-0.0001 -0.1627,-0.0021 -0.2364,-0.007zm0.0439,9.2002c0.5317,0.0693 0.9478,0.1045 1.248,0.1045c0.7681,0 1.4487,-0.2344 2.042,-0.7031c0.5933,-0.4678 0.8901,-1.1035 0.8901,-1.9053c0,-0.6133 -0.1836,-1.0918 -0.5503,-1.4355s-0.959,-0.5156 -1.7759,-0.5156c-0.1577,0 -0.3496,0.0078 -0.5762,0.0225l-1.2777,4.4325zm1.4551,-4.9931c0.3198,0.0098 0.5513,0.0156 0.6943,0.0156c1.0239,0 1.7856,-0.2266 2.2856,-0.6768c0.4995,-0.4512 0.7495,-1.0146 0.7495,-1.6924c0,-0.5137 -0.1528,-0.9131 -0.458,-1.2002c-0.3052,-0.2861 -0.7925,-0.4297 -1.4624,-0.4297c-0.1772,0 -0.4033,0.0303 -0.6792,0.0898l-1.1298,3.8937z"/>
                         </g>
                        </g>
                       </g>
                      </g>
                     </g>
                    </g>
                   </g>
                  </g>
                 </g>
                </g>
               </g>
              </g>
             </g>
            </g>
           </g>
          </g>
         </g>
        </g>
       </g>
      </g>
     </g>
    </g>
   </g>
  </g>
  <g id="svg_79">
   <g id="svg_80">
    <g id="svg_81">
     <g id="svg_82">
      <g id="svg_83">
       <g id="svg_84">
        <g id="svg_85">
         <g id="svg_86">
          <g id="svg_87">
           <g id="svg_88">
            <g id="svg_89">
             <g id="svg_90">
              <g id="svg_91">
               <g id="svg_92">
                <g id="svg_93">
                 <g id="svg_94">
                  <g id="svg_95">
                   <g id="svg_96">
                    <g id="svg_97">
                     <g id="svg_98">
                      <g id="svg_99">
                       <g id="svg_100">
                        <defs>
                         <rect height="18.079" width="16.51" x="117.8379" id="SVGID_00000017512102907658633790000010168582853661065107_"/>
                        </defs>
                        <clipPath id="SVGID_00000098901246542019650090000014690662905669660592_">
                         <use id="svg_101" overflow="visible" xlink:href="#SVGID_00000017512102907658633790000010168582853661065107_"/>
                        </clipPath>
                        <g id="svg_102" clip-path="url(#SVGID_00000098901246542019650090000014690662905669660592_)">
                         <g id="svg_103" enable-background="new    ">
                          <path id="svg_104" d="m130.559,3.5558l-0.7466,3.2793l-0.2656,0l-0.0298,-0.8223c-0.0249,-0.2988 -0.0811,-0.5645 -0.1699,-0.7988s-0.2217,-0.4375 -0.3989,-0.6084c-0.1772,-0.1719 -0.4014,-0.3066 -0.6724,-0.4033c-0.271,-0.0977 -0.5713,-0.1465 -0.9014,-0.1465c-0.8818,0 -1.6528,0.2441 -2.3125,0.7324c-0.8423,0.6221 -1.5024,1.501 -1.9805,2.6367c-0.394,0.9355 -0.5908,1.8848 -0.5908,2.8457c0,0.9805 0.2832,1.7637 0.8496,2.3486s1.3027,0.8779 2.209,0.8779c0.6846,0 1.2944,-0.1543 1.8286,-0.4639c0.5347,-0.3086 1.0308,-0.7842 1.4888,-1.4258l0.3477,0c-0.542,0.8711 -1.1431,1.5117 -1.8027,1.9229c-0.6602,0.4111 -1.4507,0.6162 -2.3721,0.6162c-0.8174,0 -1.5415,-0.1729 -2.1719,-0.5186c-0.6309,-0.3467 -1.1108,-0.833 -1.4409,-1.4609c-0.3301,-0.627 -0.4951,-1.3018 -0.4951,-2.0234c0,-1.1055 0.293,-2.1816 0.8794,-3.2266c0.5859,-1.0459 1.3901,-1.8672 2.4121,-2.4648s2.0527,-0.8965 3.0923,-0.8965c0.4878,0 1.0342,0.1172 1.6401,0.3506c0.2661,0.0996 0.458,0.1494 0.5762,0.1494c0.1182,0 0.2217,-0.0244 0.3105,-0.0742c0.0884,-0.0498 0.2363,-0.1914 0.4434,-0.4258l0.2734,0.0001l0,0z"/>
                         </g>
                        </g>
                       </g>
                      </g>
                     </g>
                    </g>
                   </g>
                  </g>
                 </g>
                </g>
               </g>
              </g>
             </g>
            </g>
           </g>
          </g>
         </g>
        </g>
       </g>
      </g>
     </g>
    </g>
   </g>
  </g>
  <g id="svg_105">
   <g id="svg_106">
    <g id="svg_107">
     <g id="svg_108">
      <g id="svg_109">
       <g id="svg_110">
        <g id="svg_111">
         <g id="svg_112">
          <g id="svg_113">
           <g id="svg_114">
            <g id="svg_115">
             <g id="svg_116">
              <g id="svg_117">
               <g id="svg_118">
                <g id="svg_119">
                 <g id="svg_120">
                  <g id="svg_121">
                   <g id="svg_122">
                    <g id="svg_123">
                     <g id="svg_124">
                      <g id="svg_125">
                       <g id="svg_126">
                        <defs>
                         <rect height="16.699" width="16.507" y="188.443" x="161.9509" id="SVGID_00000163787704615661965340000012486307970674277509_"/>
                        </defs>
                        <clipPath id="SVGID_00000060721420449188728100000009829032441215174543_">
                         <use id="svg_127" overflow="visible" xlink:href="#SVGID_00000163787704615661965340000012486307970674277509_"/>
                        </clipPath>
                        <g id="svg_128" clip-path="url(#SVGID_00000060721420449188728100000009829032441215174543_)">
                         <g id="svg_129" enable-background="new    ">
                          <path id="svg_130" d="m167.1321,192.4984l0.0889,-0.2773l3.1987,0c1.3545,0 2.3579,0.1572 3.0107,0.4717c0.6523,0.3135 1.1733,0.8076 1.5625,1.4834c0.3892,0.6748 0.5835,1.3984 0.5835,2.1709c0,0.6621 -0.1118,1.3066 -0.3359,1.9316c-0.2241,0.626 -0.478,1.126 -0.7612,1.502c-0.2832,0.377 -0.7178,0.792 -1.3037,1.2451c-0.5864,0.4531 -1.2217,0.7881 -1.9062,1.0049s-1.5391,0.3252 -2.5635,0.3252l-4.2407,0l0.0962,-0.2764c0.3887,-0.0098 0.6499,-0.0449 0.7832,-0.1045c0.1968,-0.085 0.3423,-0.1992 0.4355,-0.3438c0.1431,-0.21 0.3032,-0.6309 0.4805,-1.2637l1.7729,-6.1279c0.1377,-0.4834 0.207,-0.8623 0.207,-1.1357c0,-0.1943 -0.064,-0.3447 -0.1924,-0.4492c-0.1279,-0.1045 -0.3794,-0.1562 -0.7534,-0.1562l-0.1626,-0.0001l0,0zm2.6226,0.2832l-2.1719,7.5859c-0.1626,0.5684 -0.2437,0.9199 -0.2437,1.0537c0,0.0801 0.0259,0.1572 0.0776,0.2324c0.0518,0.0742 0.1216,0.124 0.2104,0.1494c0.1279,0.0449 0.335,0.0674 0.6206,0.0674c0.7729,0 1.4912,-0.0811 2.1533,-0.2432c0.6626,-0.1621 1.2056,-0.4023 1.6294,-0.7217c0.6006,-0.4629 1.0811,-1.1006 1.4404,-1.9131s0.5396,-1.7363 0.5396,-2.7725c0,-1.1709 -0.2759,-2.042 -0.8276,-2.6123s-1.3569,-0.8555 -2.416,-0.8555c-0.2607,0.0002 -0.5981,0.01 -1.0121,0.0295z"/>
                         </g>
                        </g>
                       </g>
                      </g>
                     </g>
                    </g>
                   </g>
                  </g>
                 </g>
                </g>
               </g>
              </g>
             </g>
            </g>
           </g>
          </g>
         </g>
        </g>
       </g>
      </g>
     </g>
    </g>
   </g>
  </g>
  <g id="svg_131">
   <g id="svg_132">
    <g id="svg_133">
     <g id="svg_134">
      <g id="svg_135">
       <g id="svg_136">
        <g id="svg_137">
         <g id="svg_138">
          <g id="svg_139">
           <g id="svg_140">
            <g id="svg_141">
             <g id="svg_142">
              <g id="svg_143">
               <g id="svg_144">
                <g id="svg_145">
                 <g id="svg_146">
                  <g id="svg_147">
                   <g id="svg_148">
                    <g id="svg_149">
                     <g id="svg_150">
                      <g id="svg_151">
                       <g id="svg_152">
                        <defs>
                         <rect height="16.688" width="15.125" y="32.7781" x="54.3383" id="SVGID_00000022537271703247829820000009586303376895916196_"/>
                        </defs>
                        <clipPath id="SVGID_00000075154605024095226430000006024739308414883497_">
                         <use id="svg_153" overflow="visible" xlink:href="#SVGID_00000022537271703247829820000009586303376895916196_"/>
                        </clipPath>
                        <g id="svg_154" clip-path="url(#SVGID_00000075154605024095226430000006024739308414883497_)">
                         <g id="svg_155" enable-background="new    ">
                          <path id="svg_156" d="m59.6853,36.5577l3.9443,0c1.0337,0 1.8066,0.2256 2.3188,0.6768s0.7681,1 0.7681,1.6475c0,0.5137 -0.1626,1.0117 -0.4873,1.4951c-0.3252,0.4834 -0.8076,0.876 -1.4478,1.1768c-0.6401,0.3018 -1.332,0.4521 -2.0752,0.4521c-0.4629,0 -1.0513,-0.084 -1.7651,-0.2539l-0.7979,2.7656c-0.187,0.6572 -0.2808,1.0908 -0.2808,1.3008c0,0.1592 0.0664,0.291 0.1997,0.3955c0.1328,0.1045 0.4502,0.1719 0.9526,0.2021l-0.0737,0.2764l-3.981,0l0.0811,-0.2764c0.522,0 0.8853,-0.0908 1.0894,-0.2734c0.2046,-0.1816 0.4248,-0.6836 0.6611,-1.5059l1.6543,-5.7695c0.1968,-0.6923 0.2954,-1.1561 0.2954,-1.3895c0,-0.1748 -0.0698,-0.3193 -0.2104,-0.4336c-0.1401,-0.1152 -0.4492,-0.1846 -0.9268,-0.21l0.0812,-0.2765zm1.3814,4.7237c0.5562,0.1445 1.0044,0.2168 1.3442,0.2168c0.5366,0 1.0254,-0.1123 1.4658,-0.3359c0.4409,-0.2246 0.7856,-0.5605 1.0342,-1.0098c0.2485,-0.4482 0.373,-0.9141 0.373,-1.3975c0,-0.5029 -0.1528,-0.9014 -0.458,-1.1953s-0.7681,-0.4414 -1.3887,-0.4414c-0.335,0 -0.7412,0.043 -1.2188,0.127l-1.1517,4.0361z"/>
                         </g>
                        </g>
                       </g>
                      </g>
                     </g>
                    </g>
                   </g>
                  </g>
                 </g>
                </g>
               </g>
              </g>
             </g>
            </g>
           </g>
          </g>
         </g>
        </g>
       </g>
      </g>
     </g>
    </g>
   </g>
  </g>
  <g id="svg_157">
   <g id="svg_158">
    <g id="svg_159">
     <g id="svg_160">
      <g id="svg_161">
       <g id="svg_162">
        <g id="svg_163">
         <g id="svg_164">
          <g id="svg_165">
           <g id="svg_166">
            <g id="svg_167">
             <g id="svg_168">
              <g id="svg_169">
               <g id="svg_170">
                <g id="svg_171">
                 <g id="svg_172">
                  <g id="svg_173">
                   <g id="svg_174">
                    <g id="svg_175">
                     <g id="svg_176">
                      <g id="svg_177">
                       <g id="svg_178">
                        <defs>
                         <rect height="20.838" width="16.506" y="41.1221" x="133.3413" id="SVGID_00000124141199787844175390000005290777031251446173_"/>
                        </defs>
                        <clipPath id="SVGID_00000111911841126828812890000007419992916339696013_">
                         <use id="svg_179" overflow="visible" xlink:href="#SVGID_00000124141199787844175390000005290777031251446173_"/>
                        </clipPath>
                        <g id="svg_180" clip-path="url(#SVGID_00000111911841126828812890000007419992916339696013_)">
                         <g id="svg_181" enable-background="new    ">
                          <path id="svg_182" d="m139.8447,55.2575l-1.9062,1.5596c0.3003,-0.0547 0.5786,-0.082 0.835,-0.082c0.2461,0 0.4736,0.0146 0.6831,0.0449c0.2095,0.0293 0.6577,0.123 1.3447,0.2793c0.687,0.1572 1.2866,0.2354 1.7993,0.2354c0.5464,0 1.0107,-0.0957 1.3926,-0.2871c0.3818,-0.1924 0.7524,-0.5117 1.1118,-0.959l0.2441,0.1191c-0.5073,0.7363 -1.106,1.2676 -1.7954,1.5928c-0.6899,0.3262 -1.4214,0.4893 -2.1943,0.4893c-0.4287,0 -1.0151,-0.085 -1.7588,-0.2539c-1.1377,-0.2539 -1.9331,-0.3809 -2.3862,-0.3809c-0.1724,0 -0.313,0.0127 -0.4214,0.0371c-0.1084,0.0254 -0.2705,0.085 -0.4873,0.1797l-0.1699,-0.2012l3.0293,-2.418c-0.936,-0.1299 -1.6455,-0.5449 -2.1279,-1.2461c-0.4829,-0.7012 -0.7241,-1.4502 -0.7241,-2.2461c0,-1.0889 0.3262,-2.2158 0.979,-3.3799c0.6523,-1.1641 1.4873,-2.0654 2.5044,-2.7051c1.0171,-0.6387 2.0161,-0.959 2.9961,-0.959c0.729,0 1.3511,0.1494 1.8657,0.4482s0.9126,0.7324 1.1934,1.3018c0.2808,0.5703 0.4209,1.1533 0.4209,1.75c0,1.1445 -0.3228,2.3027 -0.9678,3.4766c-0.6455,1.1748 -1.4473,2.0635 -2.4048,2.668c-0.9586,0.6045 -1.9767,0.916 -3.0553,0.9365zm2.7705,-10.1035c-0.4927,0 -0.9741,0.124 -1.4443,0.3701c-0.4707,0.2461 -0.9375,0.6484 -1.4004,1.208c-0.4629,0.5605 -0.8789,1.293 -1.2485,2.1982c-0.4482,1.1143 -0.6724,2.166 -0.6724,3.1562c0,0.7061 0.1797,1.3311 0.5396,1.876c0.3594,0.5449 0.9111,0.8174 1.6548,0.8174c0.4434,0 0.8818,-0.1123 1.3154,-0.3359c0.4331,-0.2236 0.8813,-0.6045 1.3447,-1.1416c0.5908,-0.6865 1.0859,-1.5596 1.4849,-2.6191s0.5986,-2.0439 0.5986,-2.9551c0,-0.6709 -0.1802,-1.2676 -0.5396,-1.79s-0.9038,-0.7842 -1.6328,-0.7842z"/>
                         </g>
                        </g>
                       </g>
                      </g>
                     </g>
                    </g>
                   </g>
                  </g>
                 </g>
                </g>
               </g>
              </g>
             </g>
            </g>
           </g>
          </g>
         </g>
        </g>
       </g>
      </g>
     </g>
    </g>
   </g>
  </g>
  <g id="svg_183">
   <g id="svg_184">
    <g id="svg_185">
     <g id="svg_186">
      <g id="svg_187">
       <g id="svg_188">
        <g id="svg_189">
         <g id="svg_190">
          <g id="svg_191">
           <g id="svg_192">
            <g id="svg_193">
             <g id="svg_194">
              <g id="svg_195">
               <g id="svg_196">
                <g id="svg_197">
                 <g id="svg_198">
                  <g id="svg_199">
                   <g id="svg_200">
                    <g id="svg_201">
                     <g id="svg_202">
                      <g id="svg_203">
                       <g id="svg_204">
                        <defs>
                         <rect height="18.081" width="17.896" y="94.054" x="143.5712" id="SVGID_00000046298254986501311580000011448499719148717735_"/>
                        </defs>
                        <clipPath id="SVGID_00000067917088253453611810000015626531164743993774_">
                         <use id="svg_205" overflow="visible" xlink:href="#SVGID_00000046298254986501311580000011448499719148717735_"/>
                        </clipPath>
                        <g id="svg_206" clip-path="url(#SVGID_00000067917088253453611810000015626531164743993774_)">
                         <g id="svg_207" enable-background="new    ">
                          <path id="svg_208" d="m151.1425,97.8307l3.0967,7.9395l1.6777,-5.9307c0.1377,-0.4873 0.207,-0.8662 0.207,-1.1348c0,-0.1846 -0.0645,-0.3291 -0.1924,-0.4336s-0.3672,-0.1562 -0.7168,-0.1562c-0.0591,0 -0.1206,-0.0029 -0.1846,-0.0078l0.0811,-0.2764l3.2222,0l-0.0884,0.2764c-0.3354,-0.0049 -0.584,0.0303 -0.7466,0.1045c-0.2314,0.1045 -0.4038,0.2393 -0.5171,0.4033c-0.1582,0.2344 -0.3179,0.6426 -0.4805,1.2246l-2.3579,8.3506l-0.2661,0l-3.333,-8.5439l-1.7812,6.3105c-0.1328,0.4785 -0.1997,0.8438 -0.1997,1.0986c0,0.1885 0.0605,0.332 0.1812,0.4287c0.1206,0.0977 0.4077,0.1631 0.8613,0.1982l-0.0742,0.2764l-3.1484,0l0.1035,-0.2764c0.394,-0.0098 0.6577,-0.0449 0.791,-0.1045c0.2017,-0.0898 0.3521,-0.207 0.4507,-0.3516c0.1431,-0.2188 0.3032,-0.6416 0.4805,-1.2695l1.9883,-7.043c-0.1924,-0.2988 -0.3979,-0.5039 -0.6172,-0.6162s-0.5605,-0.1758 -1.0239,-0.1904l0.0815,-0.2764l2.5053,0.0001l0,0l0,0z"/>
                         </g>
                        </g>
                       </g>
                      </g>
                     </g>
                    </g>
                   </g>
                  </g>
                 </g>
                </g>
               </g>
              </g>
             </g>
            </g>
           </g>
          </g>
         </g>
        </g>
       </g>
      </g>
     </g>
    </g>
   </g>
  </g>
  <g id="svg_209">
   <g id="svg_210">
    <g id="svg_211">
     <g id="svg_212">
      <g id="svg_213">
       <g id="svg_214">
        <g id="svg_215">
         <g id="svg_216">
          <g id="svg_217">
           <g id="svg_218">
            <g id="svg_219">
             <g id="svg_220">
              <g id="svg_221">
               <g id="svg_222">
                <g id="svg_223">
                 <g id="svg_224">
                  <defs>
                   <rect height="16.697" width="20.65" y="94.746" x="27.0715" id="SVGID_00000109713013227927815770000017135673187124751503_"/>
                  </defs>
                  <clipPath id="SVGID_00000120517740133710552500000001696299463881061784_">
                   <use id="svg_225" overflow="visible" xlink:href="#SVGID_00000109713013227927815770000017135673187124751503_"/>
                  </clipPath>
                  <g id="svg_226" clip-path="url(#SVGID_00000120517740133710552500000001696299463881061784_)">
                   <g id="svg_227" enable-background="new    ">
                    <path id="svg_228" d="m34.6255,98.5329l0.9243,8.1621l5.8193,-8.1621l2.4478,0l0,0.2773c-0.5322,0.0342 -0.8457,0.0693 -0.939,0.1045c-0.1631,0.0645 -0.312,0.1943 -0.4478,0.3887c-0.1353,0.1943 -0.2822,0.5674 -0.4399,1.1211l-1.856,6.4268c-0.1084,0.374 -0.1626,0.668 -0.1626,0.8818c0,0.1943 0.0664,0.3418 0.1997,0.4414c0.187,0.1445 0.4829,0.2168 0.8872,0.2168l0.1777,0l-0.0669,0.2764l-4.2222,0l0.0737,-0.2764l0.1997,0c0.3745,0 0.6606,-0.0547 0.8579,-0.165c0.1528,-0.0791 0.2896,-0.2295 0.4102,-0.4521c0.1211,-0.2217 0.2896,-0.7129 0.5068,-1.4756l1.6562,-5.874l-5.8491,8.2432l-0.2959,0l-0.939,-8.2432l-1.7896,6.2705c-0.1528,0.5332 -0.229,0.8916 -0.229,1.0762c0,0.1836 0.0664,0.3252 0.1997,0.4219c0.1328,0.0977 0.4556,0.1631 0.9683,0.1982l-0.0811,0.2764l-3.3056,0l0.0815,-0.2764l0.1997,0c0.4878,0 0.8403,-0.125 1.0571,-0.374c0.1577,-0.1797 0.3232,-0.5674 0.4956,-1.166l2.1816,-7.5557c-0.1631,-0.1689 -0.3184,-0.2842 -0.4658,-0.3438c-0.1479,-0.0596 -0.4219,-0.1074 -0.8208,-0.1416l0.0737,-0.2773l2.4926,-0.0001l0,0z"/>
                   </g>
                  </g>
                 </g>
                </g>
               </g>
              </g>
             </g>
            </g>
           </g>
          </g>
         </g>
        </g>
       </g>
      </g>
     </g>
    </g>
   </g>
  </g>
  <g id="svg_229">
   <g id="svg_230">
    <g id="svg_231">
     <g id="svg_232">
      <g id="svg_233">
       <g id="svg_234">
        <g id="svg_235">
         <g id="svg_236">
          <g id="svg_237">
           <g id="svg_238">
            <g id="svg_239">
             <g id="svg_240">
              <g id="svg_241">
               <g id="svg_242">
                <g id="svg_243">
                 <g id="svg_244">
                  <g id="svg_245">
                   <g id="svg_246">
                    <g id="svg_247">
                     <g id="svg_248">
                      <g id="svg_249">
                       <defs>
                        <rect height="16.697" width="15.125" y="188.444" x="121.4735" id="SVGID_00000058591476007822405010000006885215490449312941_"/>
                       </defs>
                       <clipPath id="SVGID_00000141416099330205152850000002984675111544389258_">
                        <use id="svg_250" overflow="visible" xlink:href="#SVGID_00000058591476007822405010000006885215490449312941_"/>
                       </clipPath>
                       <g id="svg_251" clip-path="url(#SVGID_00000141416099330205152850000002984675111544389258_)">
                        <g id="svg_252" enable-background="new    ">
                         <path id="svg_253" d="m129.3415,192.7679l-1.1445,4.0059l0.938,0c0.6694,0 1.1543,-0.1035 1.4546,-0.3105c0.3003,-0.2061 0.5591,-0.5889 0.7759,-1.1475l0.2729,0l-1.0264,3.6777l-0.2954,0c0.0884,-0.3086 0.1328,-0.5732 0.1328,-0.792c0,-0.2148 -0.043,-0.3867 -0.1294,-0.5156c-0.0859,-0.1299 -0.2041,-0.2256 -0.3545,-0.2881c-0.1499,-0.0625 -0.4663,-0.0938 -0.9487,-0.0938l-0.9526,0l-0.9673,3.3564c-0.0938,0.3232 -0.1406,0.5703 -0.1406,0.7393c0,0.1299 0.0615,0.2441 0.1846,0.3438c0.084,0.0703 0.293,0.1055 0.6279,0.1055l0.8862,0c0.96,0 1.729,-0.1719 2.3076,-0.5156c0.5786,-0.3447 1.0967,-0.9424 1.5547,-1.7939l0.2734,0l-0.9453,2.8174l-7.7397,0l0.0962,-0.2764c0.3838,-0.0098 0.6426,-0.0449 0.7754,-0.1045c0.1968,-0.0898 0.3398,-0.2041 0.4282,-0.3438c0.1328,-0.2051 0.2905,-0.6328 0.4727,-1.2861l1.7578,-6.1133c0.1377,-0.4932 0.2065,-0.8691 0.2065,-1.1279c0,-0.1895 -0.0654,-0.3379 -0.1958,-0.4453c-0.1304,-0.1064 -0.3853,-0.1602 -0.7642,-0.1602l-0.1553,0l0.0889,-0.2773l7.1929,0l-0.6201,2.4443l-0.2734,0c0.0342,-0.2295 0.0518,-0.4209 0.0518,-0.5752c0,-0.2646 -0.064,-0.4863 -0.1919,-0.665c-0.1675,-0.2295 -0.4111,-0.4043 -0.7314,-0.5234c-0.2363,-0.0898 -0.7803,-0.1348 -1.6318,-0.1348l-1.2707,-0.0001l0,0z"/>
                        </g>
                       </g>
                      </g>
                     </g>
                    </g>
                   </g>
                  </g>
                 </g>
                </g>
               </g>
              </g>
             </g>
            </g>
           </g>
          </g>
         </g>
        </g>
       </g>
      </g>
     </g>
    </g>
   </g>
  </g>
  <g id="svg_254">
   <g id="svg_255">
    <g id="svg_256">
     <g id="svg_257">
      <g id="svg_258">
       <g id="svg_259">
        <g id="svg_260">
         <g id="svg_261">
          <g id="svg_262">
           <g id="svg_263">
            <g id="svg_264">
             <g id="svg_265">
              <g id="svg_266">
               <g id="svg_267">
                <g id="svg_268">
                 <g id="svg_269">
                  <g id="svg_270">
                   <g id="svg_271">
                    <g id="svg_272">
                     <g id="svg_273">
                      <g id="svg_274">
                       <defs>
                        <rect height="15.316" width="15.125" y="173.127" x="24.8857" id="SVGID_00000092435957745957559060000010429419751290133943_"/>
                       </defs>
                       <clipPath id="SVGID_00000095306047713976450130000010856094482266853532_">
                        <use id="svg_275" overflow="visible" xlink:href="#SVGID_00000092435957745957559060000010429419751290133943_"/>
                       </clipPath>
                       <g id="svg_276" clip-path="url(#SVGID_00000095306047713976450130000010856094482266853532_)">
                        <g id="svg_277" enable-background="new    ">
                         <path id="svg_278" d="m34.0901,177.4161l1.2261,0l-0.96,3.4033c-0.0645,0.2148 -0.165,0.5508 -0.3032,1.0098c0.1875,0.7686 0.3276,1.2266 0.4214,1.376c0.1772,0.2744 0.4009,0.4121 0.6719,0.4121c0.1968,0 0.3789,-0.083 0.5464,-0.2471c0.1675,-0.165 0.2783,-0.4209 0.3325,-0.7705l0.2954,0c-0.0688,0.7178 -0.2178,1.2139 -0.4468,1.4883s-0.4937,0.4111 -0.7939,0.4111c-0.2808,0 -0.5356,-0.1191 -0.7646,-0.3584c-0.2285,-0.2393 -0.4346,-0.7529 -0.6167,-1.541c-0.2163,0.4336 -0.4282,0.7627 -0.6348,0.9873c-0.2905,0.3096 -0.606,0.54 -0.9453,0.6914c-0.3398,0.1523 -0.7266,0.2285 -1.1597,0.2285c-1.0879,0 -1.8882,-0.3662 -2.4004,-1.0996c-0.5117,-0.7324 -0.7681,-1.5684 -0.7681,-2.5059c0,-1.0967 0.3003,-1.9854 0.9014,-2.666c0.6006,-0.6807 1.3047,-1.0205 2.1118,-1.0205c0.5615,0 1.0562,0.1729 1.4849,0.5195c0.4282,0.3467 0.8169,0.9912 1.1665,1.9336l0.6352,-2.2519zm-0.8936,3.0899c-0.2661,-1.0273 -0.6079,-1.7441 -1.0264,-2.1504c-0.4189,-0.4072 -0.8447,-0.6104 -1.2778,-0.6104c-0.4824,0 -0.8838,0.2686 -1.2036,0.8047c-0.3203,0.5361 -0.4805,1.3896 -0.4805,2.5615c0,0.6934 0.0693,1.2373 0.207,1.6338s0.3457,0.7031 0.624,0.9199c0.2783,0.2178 0.5723,0.3262 0.8823,0.3262c0.3794,0 0.7266,-0.1777 1.0415,-0.5312c0.4283,-0.4786 0.8395,-1.4639 1.2335,-2.9541z"/>
                        </g>
                       </g>
                      </g>
                     </g>
                    </g>
                   </g>
                  </g>
                 </g>
                </g>
               </g>
              </g>
             </g>
            </g>
           </g>
          </g>
         </g>
        </g>
       </g>
      </g>
     </g>
    </g>
   </g>
  </g>
  <g id="svg_279">
   <g id="svg_280">
    <g id="svg_281">
     <g id="svg_282">
      <g id="svg_283">
       <g id="svg_284">
        <g id="svg_285">
         <g id="svg_286">
          <g id="svg_287">
           <g id="svg_288">
            <g id="svg_289">
             <g id="svg_290">
              <g id="svg_291">
               <g id="svg_292">
                <g id="svg_293">
                 <g id="svg_294">
                  <g id="svg_295">
                   <g id="svg_296">
                    <g id="svg_297">
                     <g id="svg_298">
                      <g id="svg_299">
                       <defs>
                        <rect height="15.316" width="15.125" y="81.4198" x="54.6385" id="SVGID_00000031891575592112270400000014457130184538482591_"/>
                       </defs>
                       <clipPath id="SVGID_00000075843131572755147290000000353754409022683034_">
                        <use id="svg_300" overflow="visible" xlink:href="#SVGID_00000031891575592112270400000014457130184538482591_"/>
                       </clipPath>
                       <g id="svg_301" clip-path="url(#SVGID_00000075843131572755147290000000353754409022683034_)">
                        <g id="svg_302" enable-background="new    ">
                         <path id="svg_303" d="m63.8429,85.709l1.2261,0l-0.96,3.4033c-0.0645,0.2148 -0.165,0.5508 -0.3032,1.0098c0.1875,0.7686 0.3276,1.2266 0.4214,1.376c0.1772,0.2744 0.4009,0.4121 0.6719,0.4121c0.1968,0 0.3789,-0.083 0.5464,-0.2471c0.1675,-0.165 0.2783,-0.4209 0.3325,-0.7705l0.2954,0c-0.0688,0.7178 -0.2178,1.2139 -0.4468,1.4883s-0.4937,0.4111 -0.7939,0.4111c-0.2808,0 -0.5356,-0.1191 -0.7646,-0.3584c-0.2285,-0.2393 -0.4346,-0.7529 -0.6167,-1.541c-0.2163,0.4336 -0.4282,0.7627 -0.6348,0.9873c-0.2905,0.3096 -0.606,0.54 -0.9453,0.6914c-0.3398,0.1523 -0.7266,0.2285 -1.1597,0.2285c-1.0879,0 -1.8882,-0.3662 -2.4004,-1.0996c-0.5117,-0.7324 -0.7681,-1.5684 -0.7681,-2.5059c0,-1.0967 0.3003,-1.9854 0.9014,-2.666c0.6006,-0.6807 1.3047,-1.0205 2.1118,-1.0205c0.5615,0 1.0562,0.1729 1.4849,0.5195c0.4282,0.3467 0.8169,0.9912 1.1665,1.9336l0.6352,-2.2519zm-0.8936,3.0899c-0.2661,-1.0273 -0.6079,-1.7441 -1.0264,-2.1504c-0.4189,-0.4072 -0.8447,-0.6104 -1.2778,-0.6104c-0.4824,0 -0.8838,0.2686 -1.2036,0.8047c-0.3203,0.5361 -0.4805,1.3896 -0.4805,2.5615c0,0.6934 0.0693,1.2373 0.207,1.6338s0.3457,0.7031 0.624,0.9199c0.2783,0.2178 0.5723,0.3262 0.8823,0.3262c0.3794,0 0.7266,-0.1777 1.0415,-0.5312c0.4283,-0.4787 0.8395,-1.464 1.2335,-2.9541z"/>
                        </g>
                       </g>
                      </g>
                     </g>
                    </g>
                   </g>
                  </g>
                 </g>
                </g>
               </g>
              </g>
             </g>
            </g>
           </g>
          </g>
         </g>
        </g>
       </g>
      </g>
     </g>
    </g>
   </g>
  </g>
  <g id="svg_304" fill-opacity="0.4" fill="#000">
   <path id="svg_305" d="m112.97368,215.15789c0,0.8 0,1.6 0,2.5c-1.3,0.2 -0.6,-1.5 -0.7,-2.3c0,-1.4 0,-2.8 0,-4.2c0.8,-0.4 0.8,1.3 1.4,0c2.2,-1 3.7,2.2 2.4,3.9c-0.6,1 -2.4,1.2 -3.1,0l0,0.1zm2.6,-1.6c0.5,-2.5 -3.7,-1.9 -2.6,0.4c0,2.1 3.1,1.6 2.6,-0.4z"/>
   <path id="svg_306" d="m121.87368,213.25789c-0.4,0.8 -1.9,0.1 -2.8,0.3c-2,-0.1 0.3,2.4 1.5,1.5c2.5,0 -1.4,1.6 -2.3,0.2c-1.9,-1.5 -0.3,-5.3 2.1,-4.4c0.9,0.2 1.4,1.2 1.4,2.2l0.1,0.2zm-0.7,-0.2c0.6,-2.3 -4,-1 -2.1,0c0.7,0 1.4,0 2.1,0z"/>
   <path id="svg_307" d="m126.77368,215.25789c0.6,0 1.3,0 2,0c0,-1.3 0,-2.7 0,-4.1c1.3,-0.2 0.6,1.5 0.7,2.3c0,0.8 0,1.6 0,2.4c-2.1,0 -4.2,0 -6.4,0c0,-1.5 0,-3.1 0,-4.7c1.3,-0.2 0.6,1.5 0.7,2.3c0.1,0.5 -0.2,1.6 0.2,1.7c0.5,-0.1 1.6,0.2 1.8,-0.2c0,-1.3 0,-2.6 0,-3.9c1.3,-0.2 0.6,1.5 0.7,2.3c0,0.5 0,1.1 0,1.7l0.3,0.2z"/>
   <path id="svg_308" d="m133.17368,216.35789c0.3,1.4 -3,1.7 -1.7,0.7c1.5,-0.2 1,-1.9 0.5,-2.8c-0.4,-1 -0.8,-2 -1.2,-3.1c1.2,-0.2 1.2,1.4 1.7,2.2c0.2,0.2 0.4,1.9 0.7,1.2c0.4,-1.1 0.9,-2.2 1.3,-3.4c1.4,-0.2 0,1.5 0,2.3c-0.3,0.9 -0.7,1.9 -1.1,2.9l-0.2,0z"/>
   <path id="svg_309" d="m140.47368,213.25789c-0.4,0.8 -1.9,0.1 -2.8,0.3c-2,-0.1 0.3,2.4 1.5,1.5c2.5,0 -1.4,1.6 -2.3,0.2c-1.9,-1.5 -0.3,-5.3 2.1,-4.4c0.9,0.2 1.4,1.2 1.4,2.2l0.1,0.2zm-0.7,-0.2c0.6,-2.3 -4,-1 -2.1,0c0.7,0 1.4,0 2.1,0z"/>
   <path id="svg_310" d="m141.77368,215.85789c0,-1.5 0,-3.1 0,-4.7c1.1,0 2.2,0 3.3,0c0,1.5 -3.3,-0.4 -2.5,1.8c0,0.9 0,1.9 0,2.9c-0.2,0 -0.5,0 -0.7,0l-0.1,0z"/>
   <path id="svg_311" d="m145.97368,214.95789c0.7,1.4 4.2,-0.8 2.1,-1.2c-0.5,-0.1 -2.2,0.3 -1.5,-0.6c1,0.1 3.1,0 1.4,-1.2c-0.6,-0.7 -2.8,0.8 -1.8,-0.6c2,-0.9 4.2,1.2 3.3,3.2c-0.2,1.5 -3.5,2.3 -3.6,0.7l0,-0.1l0,0l0,0l0.1,-0.2z"/>
   <path id="svg_312" d="m151.27368,214.75789c1.6,-0.5 0.6,2.3 0,0.6c0,-0.2 0,-0.4 0,-0.6z"/>
   <path id="svg_313" d="m154.67368,215.15789c0,0.8 0,1.6 0,2.5c-1.3,0.2 -0.6,-1.5 -0.7,-2.3c0,-1.4 0,-2.8 0,-4.2c0.8,-0.4 0.8,1.3 1.4,0c2.2,-1 3.7,2.2 2.4,3.9c-0.6,1 -2.4,1.2 -3.1,0l0,0.1zm2.6,-1.6c0.5,-2.5 -3.7,-1.9 -2.6,0.4c0,2.1 3.1,1.6 2.6,-0.4z"/>
   <path id="svg_314" d="m159.97368,213.45789c-0.8,1.9 2.7,2.3 2,0.1c0.6,-2.4 -2.3,-2.7 -2,-0.1zm2,4.2c0,-0.8 0,-1.6 0,-2.4c-1.8,2.2 -3.8,-1.7 -2.6,-3.3c0.4,-1.8 3,0.3 2.6,-1.1c-0.4,-1.1 0.9,-1.8 0.8,-0.3c-0.7,2.2 2.1,-0.6 2.4,1.4c1.2,1.6 -0.3,5.2 -2.4,3.5c-0.4,0.6 0.6,2.5 -0.8,2.1l0,0.1zm2.8,-4.2c0.8,-1.9 -2.7,-2.3 -2,-0.1c-0.6,2.4 2.3,2.7 2,0.1z"/>
  </g>
 </g>
</svg>