<svg version="1.1" xmlns="http://www.w3.org/2000/svg" xmlns:xlink="http://www.w3.org/1999/xlink" width="884" height="594"><defs><clipPath id="aRxffgQBJxoF"><path fill="none" stroke="none" d=" M 0 0 L 884 0 L 884 594 L 0 594 L 0 0 Z"/></clipPath></defs><g transform="scale(1,1)" clip-path="url(#aRxffgQBJxoF)"><g><rect fill="rgb(255,255,255)" stroke="none" x="0" y="0" width="884" height="594" fill-opacity="1"/><path fill="rgb(0,0,0)" stroke="none" paint-order="stroke fill markers" d=" M 163.21599340631388 329.3568568520735 C 168.34185358792715 327.992499130774 172.71578288705902 324.64778192094707 175.37556678419682 320.0585048304187 L 158.07167631605728 310.0297773604667 Z" fill-opacity="0.09803921568627451"/><path fill="none" stroke="rgb(0,0,0)" paint-order="fill stroke markers" d=" M 163.21599340631388 329.3568568520735 C 168.34185358792715 327.992499130774 172.71578288705902 324.64778192094707 175.37556678419682 320.0585048304187 L 158.07167631605728 310.0297773604667 Z" stroke-opacity="0.6" stroke-linecap="round" stroke-linejoin="round" stroke-miterlimit="10" stroke-width="2.5"/><path fill="rgb(0,0,0)" stroke="none" paint-order="stroke fill markers" d=" M 179.29794238205594 321.2300286476184 C 182.42293446098782 315.3076692629096 182.9315853921524 308.3490522481429 180.701016780234 302.0352198269774 L 158.07167631605728 310.0297773604667 Z" fill-opacity="0.09803921568627451"/><path fill="none" stroke="rgb(0,0,0)" paint-order="fill stroke markers" d=" M 179.29794238205594 321.2300286476184 C 182.42293446098782 315.3076692629096 182.9315853921524 308.3490522481429 180.701016780234 302.0352198269774 L 158.07167631605728 310.0297773604667 Z" stroke-opacity="0.6" stroke-linecap="round" stroke-linejoin="round" stroke-miterlimit="10" stroke-width="2.5"/><path fill="rgb(0,0,0)" stroke="none" paint-order="stroke fill markers" d=" M 317.20832034897626 253.80953274390023 C 319.7213744206191 260.9229665961027 324.8222982468737 266.82841857658195 331.49468182025896 270.3491684095396 L 345.49499592919716 243.81633582703859 Z" fill-opacity="0.09803921568627451"/><path fill="none" stroke="rgb(0,0,0)" paint-order="fill stroke markers" d=" M 317.20832034897626 253.80953274390023 C 319.7213744206191 260.9229665961027 324.8222982468737 266.82841857658195 331.49468182025896 270.3491684095396 L 345.49499592919716 243.81633582703859 Z" stroke-opacity="0.6" stroke-linecap="round" stroke-linejoin="round" stroke-miterlimit="10" stroke-width="2.5"/><path fill="none" stroke="rgb(0,0,0)" paint-order="fill stroke markers" d=" M 323.33710005802413 251.6443400785802 C 325.30565908081104 257.21652992947213 329.3013827447104 261.8424673141809 334.5280832105289 264.60038801666434" stroke-opacity="0.6" stroke-linecap="round" stroke-linejoin="round" stroke-miterlimit="10" stroke-width="2.5"/><path fill="rgb(0,0,0)" stroke="none" paint-order="stroke fill markers" d=" M 333.828067505082 265.9270296457894 C 339.3883871495697 268.86098783992077 345.8500096825505 269.592278689885 351.9253922920179 267.9751851915471 L 345.49499592919716 243.81633582703859 Z" fill-opacity="0.09803921568627451"/><path fill="none" stroke="rgb(0,0,0)" paint-order="fill stroke markers" d=" M 333.828067505082 265.9270296457894 C 339.3883871495697 268.86098783992077 345.8500096825505 269.592278689885 351.9253922920179 267.9751851915471 L 345.49499592919716 243.81633582703859 Z" stroke-opacity="0.6" stroke-linecap="round" stroke-linejoin="round" stroke-miterlimit="10" stroke-width="2.5"/><path fill="none" stroke="rgb(0,0,0)" paint-order="fill stroke markers" d=" M 336.86146889535195 260.17824925291416 C 340.97610543227285 262.34937831657135 345.7577061066786 262.89053354554494 350.25348923768445 261.69388435677484" stroke-opacity="0.6" stroke-linecap="round" stroke-linejoin="round" stroke-miterlimit="10" stroke-width="2.5"/><path fill="none" stroke="rgb(0,0,0)" paint-order="fill stroke markers" d=" M 170.85373226317802 358.05166384644264 L 158.07167631605728 310.0297773604667" stroke-opacity="0.6980392156862745" stroke-linecap="round" stroke-linejoin="round" stroke-miterlimit="10" stroke-width="2.5"/><path fill="none" stroke="rgb(0,0,0)" paint-order="fill stroke markers" d=" M 204.92750621934223 293.4764169771097 L 158.07167631605728 310.0297773604667" stroke-opacity="0.6980392156862745" stroke-linecap="round" stroke-linejoin="round" stroke-miterlimit="10" stroke-width="2.5"/><path fill="none" stroke="rgb(0,0,0)" paint-order="fill stroke markers" d=" M 170.85373226317802 358.05166384644264 L 204.92750621934223 293.4764169771097" stroke-opacity="0.6980392156862745" stroke-linecap="round" stroke-linejoin="round" stroke-miterlimit="10" stroke-width="2.5"/><path fill="none" stroke="rgb(0,0,0)" paint-order="fill stroke markers" d=" M 170.85373226317802 358.05166384644264 L 383.8411637705593 387.88199528496637" stroke-opacity="0.6980392156862745" stroke-linecap="round" stroke-linejoin="round" stroke-miterlimit="10" stroke-width="2.5"/><path fill="none" stroke="rgb(0,0,0)" paint-order="fill stroke markers" d=" M 204.92750621934223 293.4764169771097 L 383.8411637705593 387.88199528496637" stroke-opacity="0.6980392156862745" stroke-linecap="round" stroke-linejoin="round" stroke-miterlimit="10" stroke-width="2.5"/><path fill="none" stroke="rgb(0,0,0)" paint-order="fill stroke markers" d=" M 158.07167631605728 310.0297773604667 L 277.3474480168686 372.9668295657045" stroke-opacity="0.6980392156862745" stroke-linecap="round" stroke-linejoin="round" stroke-miterlimit="10" stroke-width="2.5"/><path fill="none" stroke="rgb(0,0,0)" paint-order="fill stroke markers" d=" M 277.3474480168686 372.9668295657045 L 345.49499592919716 243.81633582703859" stroke-opacity="0.6980392156862745" stroke-linecap="round" stroke-linejoin="round" stroke-miterlimit="10" stroke-width="2.5"/><path fill="none" stroke="rgb(0,0,0)" paint-order="fill stroke markers" d=" M 345.49499592919716 243.81633582703859 L 158.07167631605728 310.0297773604667" stroke-opacity="0.6980392156862745" stroke-linecap="round" stroke-linejoin="round" stroke-miterlimit="10" stroke-width="2.5"/><path fill="none" stroke="rgb(0,0,0)" paint-order="fill stroke markers" d=" M 170.85373226317802 358.05166384644264 L 204.92750621934223 293.4764169771097" stroke-opacity="0.6980392156862745" stroke-linecap="round" stroke-linejoin="round" stroke-miterlimit="10" stroke-width="2.5"/><path fill="none" stroke="rgb(0,0,0)" paint-order="fill stroke markers" d=" M 204.92750621934223 293.4764169771097 L 383.8411637705593 387.88199528496637" stroke-opacity="0.6980392156862745" stroke-linecap="round" stroke-linejoin="round" stroke-miterlimit="10" stroke-width="2.5"/><path fill="none" stroke="rgb(0,0,0)" paint-order="fill stroke markers" d=" M 383.8411637705593 387.88199528496637 L 170.85373226317802 358.05166384644264" stroke-opacity="0.6980392156862745" stroke-linecap="round" stroke-linejoin="round" stroke-miterlimit="10" stroke-width="2.5"/><path fill="none" stroke="rgb(0,0,0)" paint-order="fill stroke markers" d=" M 345.49499592919716 243.81633582703859 L 383.8411637705593 387.88199528496637" stroke-opacity="0.6980392156862745" stroke-linecap="round" stroke-linejoin="round" stroke-miterlimit="10" stroke-width="2.5"/><path fill="rgb(0,0,0)" stroke="none" paint-order="stroke fill markers" d=" M 175.85373226317802 358.05166384644264 C 175.85373226317802 360.8130875955966 173.615156012332 363.05166384644264 170.85373226317802 363.05166384644264 C 168.09230851402404 363.05166384644264 165.85373226317802 360.8130875955966 165.85373226317802 358.05166384644264 C 165.85373226317802 355.2902400972887 168.09230851402404 353.05166384644264 170.85373226317802 353.05166384644264 C 173.615156012332 353.05166384644264 175.85373226317802 355.2902400972887 175.85373226317802 358.05166384644264 Z" fill-opacity="1"/><path fill="none" stroke="rgb(0,0,0)" paint-order="fill stroke markers" d=" M 175.85373226317802 358.05166384644264 C 175.85373226317802 360.8130875955966 173.615156012332 363.05166384644264 170.85373226317802 363.05166384644264 C 168.09230851402404 363.05166384644264 165.85373226317802 360.8130875955966 165.85373226317802 358.05166384644264 C 165.85373226317802 355.2902400972887 168.09230851402404 353.05166384644264 170.85373226317802 353.05166384644264 C 173.615156012332 353.05166384644264 175.85373226317802 355.2902400972887 175.85373226317802 358.05166384644264 Z" stroke-opacity="1" stroke-linecap="round" stroke-linejoin="round" stroke-miterlimit="10"/><path fill="rgb(0,0,0)" stroke="none" paint-order="stroke fill markers" d=" M 209.92750621934223 293.4764169771097 C 209.92750621934223 296.23784072626364 207.6889299684962 298.4764169771097 204.92750621934223 298.4764169771097 C 202.16608247018826 298.4764169771097 199.92750621934223 296.23784072626364 199.92750621934223 293.4764169771097 C 199.92750621934223 290.71499322795574 202.16608247018826 288.4764169771097 204.92750621934223 288.4764169771097 C 207.6889299684962 288.4764169771097 209.92750621934223 290.71499322795574 209.92750621934223 293.4764169771097 Z" fill-opacity="1"/><path fill="none" stroke="rgb(0,0,0)" paint-order="fill stroke markers" d=" M 209.92750621934223 293.4764169771097 C 209.92750621934223 296.23784072626364 207.6889299684962 298.4764169771097 204.92750621934223 298.4764169771097 C 202.16608247018826 298.4764169771097 199.92750621934223 296.23784072626364 199.92750621934223 293.4764169771097 C 199.92750621934223 290.71499322795574 202.16608247018826 288.4764169771097 204.92750621934223 288.4764169771097 C 207.6889299684962 288.4764169771097 209.92750621934223 290.71499322795574 209.92750621934223 293.4764169771097 Z" stroke-opacity="1" stroke-linecap="round" stroke-linejoin="round" stroke-miterlimit="10"/><path fill="rgb(0,0,0)" stroke="none" paint-order="stroke fill markers" d=" M 163.07167631605728 310.0297773604667 C 163.07167631605728 312.79120110962066 160.83310006521126 315.0297773604667 158.07167631605728 315.0297773604667 C 155.3102525669033 315.0297773604667 153.07167631605728 312.79120110962066 153.07167631605728 310.0297773604667 C 153.07167631605728 307.26835361131276 155.3102525669033 305.0297773604667 158.07167631605728 305.0297773604667 C 160.83310006521126 305.0297773604667 163.07167631605728 307.26835361131276 163.07167631605728 310.0297773604667 Z" fill-opacity="1"/><path fill="none" stroke="rgb(0,0,0)" paint-order="fill stroke markers" d=" M 163.07167631605728 310.0297773604667 C 163.07167631605728 312.79120110962066 160.83310006521126 315.0297773604667 158.07167631605728 315.0297773604667 C 155.3102525669033 315.0297773604667 153.07167631605728 312.79120110962066 153.07167631605728 310.0297773604667 C 153.07167631605728 307.26835361131276 155.3102525669033 305.0297773604667 158.07167631605728 305.0297773604667 C 160.83310006521126 305.0297773604667 163.07167631605728 307.26835361131276 163.07167631605728 310.0297773604667 Z" stroke-opacity="1" stroke-linecap="round" stroke-linejoin="round" stroke-miterlimit="10"/><path fill="rgb(0,0,0)" stroke="none" paint-order="stroke fill markers" d=" M 350.49499592919716 243.81633582703859 C 350.49499592919716 246.57775957619256 348.2564196783511 248.81633582703859 345.49499592919716 248.81633582703859 C 342.7335721800432 248.81633582703859 340.49499592919716 246.57775957619256 340.49499592919716 243.81633582703859 C 340.49499592919716 241.0549120778846 342.7335721800432 238.81633582703859 345.49499592919716 238.81633582703859 C 348.2564196783511 238.81633582703859 350.49499592919716 241.0549120778846 350.49499592919716 243.81633582703859 Z" fill-opacity="1"/><path fill="none" stroke="rgb(0,0,0)" paint-order="fill stroke markers" d=" M 350.49499592919716 243.81633582703859 C 350.49499592919716 246.57775957619256 348.2564196783511 248.81633582703859 345.49499592919716 248.81633582703859 C 342.7335721800432 248.81633582703859 340.49499592919716 246.57775957619256 340.49499592919716 243.81633582703859 C 340.49499592919716 241.0549120778846 342.7335721800432 238.81633582703859 345.49499592919716 238.81633582703859 C 348.2564196783511 238.81633582703859 350.49499592919716 241.0549120778846 350.49499592919716 243.81633582703859 Z" stroke-opacity="1" stroke-linecap="round" stroke-linejoin="round" stroke-miterlimit="10"/><path fill="rgb(0,0,0)" stroke="none" paint-order="stroke fill markers" d=" M 388.8411637705593 387.88199528496637 C 388.8411637705593 390.6434190341203 386.60258751971327 392.88199528496637 383.8411637705593 392.88199528496637 C 381.07974002140537 392.88199528496637 378.8411637705593 390.6434190341203 378.8411637705593 387.88199528496637 C 378.8411637705593 385.1205715358124 381.07974002140537 382.88199528496637 383.8411637705593 382.88199528496637 C 386.60258751971327 382.88199528496637 388.8411637705593 385.1205715358124 388.8411637705593 387.88199528496637 Z" fill-opacity="1"/><path fill="none" stroke="rgb(0,0,0)" paint-order="fill stroke markers" d=" M 388.8411637705593 387.88199528496637 C 388.8411637705593 390.6434190341203 386.60258751971327 392.88199528496637 383.8411637705593 392.88199528496637 C 381.07974002140537 392.88199528496637 378.8411637705593 390.6434190341203 378.8411637705593 387.88199528496637 C 378.8411637705593 385.1205715358124 381.07974002140537 382.88199528496637 383.8411637705593 382.88199528496637 C 386.60258751971327 382.88199528496637 388.8411637705593 385.1205715358124 388.8411637705593 387.88199528496637 Z" stroke-opacity="1" stroke-linecap="round" stroke-linejoin="round" stroke-miterlimit="10"/><path fill="rgb(0,0,0)" stroke="none" paint-order="stroke fill markers" d=" M 282.3474480168686 372.9668295657045 C 282.3474480168686 375.7282533148584 280.10887176602256 377.9668295657045 277.3474480168686 377.9668295657045 C 274.58602426771466 377.9668295657045 272.3474480168686 375.7282533148584 272.3474480168686 372.9668295657045 C 272.3474480168686 370.2054058165505 274.58602426771466 367.9668295657045 277.3474480168686 367.9668295657045 C 280.10887176602256 367.9668295657045 282.3474480168686 370.2054058165505 282.3474480168686 372.9668295657045 Z" fill-opacity="1"/><path fill="none" stroke="rgb(0,0,0)" paint-order="fill stroke markers" d=" M 282.3474480168686 372.9668295657045 C 282.3474480168686 375.7282533148584 280.10887176602256 377.9668295657045 277.3474480168686 377.9668295657045 C 274.58602426771466 377.9668295657045 272.3474480168686 375.7282533148584 272.3474480168686 372.9668295657045 C 272.3474480168686 370.2054058165505 274.58602426771466 367.9668295657045 277.3474480168686 367.9668295657045 C 280.10887176602256 367.9668295657045 282.3474480168686 370.2054058165505 282.3474480168686 372.9668295657045 Z" stroke-opacity="1" stroke-linecap="round" stroke-linejoin="round" stroke-miterlimit="10"/><g transform="scale(19,19)"><g transform="translate(7.684210526315789,19.472473684210527)"><path fill="rgb(0,0,0)" stroke="none" paint-order="stroke fill markers" d=" M 0.179 -0.115 L 0.527 -0.6990000000000001 Q 0.537 -0.715 0.553 -0.716 Q 0.5680000000000001 -0.716 0.5700000000000001 -0.706 Q 0.5710000000000001 -0.7030000000000001 0.5720000000000001 -0.6920000000000001 L 0.633 -0.067 Q 0.636 -0.042 0.645 -0.037 L 0.646 -0.037 L 0.646 -0.037 L 0.646 -0.037 L 0.646 -0.037 L 0.646 -0.036000000000000004 Q 0.658 -0.031 0.6980000000000001 -0.031 Q 0.72 -0.031 0.721 -0.02 Q 0.721 0 0.7030000000000001 0 L 0.591 -0.003 L 0.59 -0.003 L 0.466 0 L 0.465 0 Q 0.451 0 0.451 -0.011 Q 0.459 -0.03 0.47500000000000003 -0.031 Q 0.547 -0.031 0.547 -0.064 Q 0.547 -0.063 0.531 -0.231 L 0.28 -0.231 L 0.20400000000000001 -0.10300000000000001 Q 0.19 -0.078 0.19 -0.066 Q 0.19 -0.035 0.23700000000000002 -0.031 Q 0.253 -0.031 0.253 -0.019 Q 0.253 0 0.234 0 L 0.138 -0.003 L 0.134 -0.003 L 0.05 0 L 0.048 0 Q 0.035 0 0.035 -0.011 Q 0.035 -0.029 0.05 -0.03 L 0.05 -0.031 L 0.056 -0.031 Q 0.11900000000000001 -0.035 0.159 -0.085 Q 0.169 -0.098 0.179 -0.115 M 0.299 -0.262 L 0.528 -0.262 L 0.496 -0.592 L 0.299 -0.262 Z" fill-opacity="1"/></g></g><g transform="scale(19,19)"><g transform="translate(18.63157894736842,13.36721052631579)"><path fill="rgb(0,0,0)" stroke="none" paint-order="stroke fill markers" d=" M 0.76 -0.6950000000000001 L 0.6970000000000001 -0.44 Q 0.6920000000000001 -0.422 0.687 -0.421 L 0.686 -0.42 L 0.679 -0.42 Q 0.664 -0.42 0.664 -0.43 L 0.667 -0.47900000000000004 L 0.667 -0.481 Q 0.667 -0.605 0.589 -0.652 L 0.588 -0.653 Q 0.553 -0.674 0.506 -0.674 Q 0.4 -0.674 0.305 -0.595 Q 0.281 -0.5760000000000001 0.262 -0.553 Q 0.167 -0.442 0.145 -0.271 Q 0.14100000000000001 -0.24 0.14100000000000001 -0.217 Q 0.14100000000000001 -0.077 0.247 -0.028 Q 0.28800000000000003 -0.009000000000000001 0.337 -0.009000000000000001 Q 0.431 -0.009000000000000001 0.521 -0.082 Q 0.591 -0.14100000000000001 0.622 -0.24 Q 0.624 -0.25 0.635 -0.25 Q 0.647 -0.25 0.647 -0.24 Q 0.647 -0.222 0.624 -0.176 Q 0.593 -0.113 0.537 -0.064 Q 0.438 0.022 0.321 0.022 Q 0.193 0.022 0.116 -0.066 Q 0.05 -0.14100000000000001 0.05 -0.252 Q 0.05 -0.401 0.159 -0.531 Q 0.26 -0.652 0.398 -0.6910000000000001 Q 0.449 -0.705 0.498 -0.705 Q 0.607 -0.705 0.664 -0.616 L 0.734 -0.6930000000000001 Q 0.746 -0.705 0.749 -0.705 Q 0.76 -0.705 0.76 -0.6950000000000001 Z" fill-opacity="1"/></g></g><g transform="scale(19,19)"><g transform="translate(9.421052631578947,15.472473684210525)"><path fill="rgb(0,0,0)" stroke="none" paint-order="stroke fill markers" d=" M 0.926 -0.606 L 0.793 -0.073 Q 0.788 -0.055 0.788 -0.049 Q 0.788 -0.032 0.835 -0.031 L 0.836 -0.031 L 0.853 -0.031 Q 0.879 -0.031 0.881 -0.02 Q 0.881 0 0.862 0 L 0.738 -0.003 L 0.737 -0.003 L 0.614 0 L 0.613 0 Q 0.598 0 0.598 -0.012 Q 0.598 -0.029 0.614 -0.031 L 0.626 -0.031 Q 0.6910000000000001 -0.031 0.704 -0.045 Q 0.71 -0.052000000000000005 0.716 -0.073 Q 0.716 -0.074 0.717 -0.078 L 0.86 -0.651 L 0.859 -0.651 L 0.455 -0.018000000000000002 Q 0.443 -0.001 0.433 0 Q 0.422 0 0.418 -0.023 L 0.332 -0.643 L 0.331 -0.643 L 0.195 -0.098 Q 0.191 -0.083 0.191 -0.075 Q 0.191 -0.038 0.23900000000000002 -0.032 Q 0.248 -0.031 0.259 -0.031 Q 0.277 -0.031 0.277 -0.02 Q 0.277 0 0.259 0 L 0.159 -0.003 L 0.156 -0.003 L 0.057 0 L 0.056 0 Q 0.042 0 0.042 -0.012 Q 0.042 -0.031 0.06 -0.031 Q 0.139 -0.034 0.16 -0.081 Q 0.164 -0.091 0.168 -0.106 L 0.295 -0.615 Q 0.299 -0.631 0.299 -0.634 Q 0.299 -0.646 0.28300000000000003 -0.649 L 0.28200000000000003 -0.649 L 0.28200000000000003 -0.649 Q 0.28 -0.65 0.277 -0.65 Q 0.253 -0.652 0.234 -0.652 Q 0.20800000000000002 -0.652 0.20600000000000002 -0.66 Q 0.20500000000000002 -0.662 0.20500000000000002 -0.664 Q 0.20500000000000002 -0.681 0.222 -0.683 L 0.222 -0.683 L 0.23500000000000001 -0.683 L 0.372 -0.683 Q 0.395 -0.683 0.399 -0.678 L 0.399 -0.677 Q 0.401 -0.673 0.403 -0.66 L 0.481 -0.094 L 0.846 -0.664 Q 0.857 -0.681 0.866 -0.682 Q 0.87 -0.683 0.885 -0.683 L 1.0170000000000001 -0.683 Q 1.042 -0.683 1.044 -0.672 Q 1.044 -0.655 1.03 -0.653 Q 1.025 -0.652 1.012 -0.652 Q 0.9490000000000001 -0.652 0.937 -0.636 L 0.936 -0.635 L 0.936 -0.634 Q 0.931 -0.627 0.926 -0.606 Z" fill-opacity="1"/></g></g><g transform="scale(19,19)"><g transform="translate(14.789473684210526,20.577736842105264)"><path fill="rgb(0,0,0)" stroke="none" paint-order="stroke fill markers" d=" M 0.303 -0.316 L 0.303 -0.316 L 0.241 -0.066 L 0.23800000000000002 -0.049 Q 0.23800000000000002 -0.032 0.28400000000000003 -0.031 L 0.28400000000000003 -0.031 L 0.28400000000000003 -0.031 L 0.303 -0.031 Q 0.329 -0.031 0.331 -0.02 Q 0.331 0 0.311 0 L 0.247 -0.002 L 0.246 -0.002 L 0.184 -0.003 L 0.182 -0.003 L 0.056 0 L 0.055 0 Q 0.04 0 0.04 -0.012 Q 0.04 -0.029 0.056 -0.031 L 0.068 -0.031 Q 0.133 -0.031 0.146 -0.045 Q 0.152 -0.052000000000000005 0.158 -0.073 Q 0.158 -0.074 0.159 -0.078 L 0.293 -0.615 Q 0.297 -0.631 0.297 -0.634 Q 0.297 -0.646 0.281 -0.649 L 0.28 -0.649 L 0.28 -0.649 Q 0.278 -0.65 0.275 -0.65 Q 0.251 -0.652 0.232 -0.652 Q 0.20600000000000002 -0.652 0.20400000000000001 -0.66 Q 0.203 -0.662 0.203 -0.664 Q 0.203 -0.681 0.22 -0.683 L 0.22 -0.683 L 0.233 -0.683 L 0.557 -0.683 Q 0.678 -0.683 0.73 -0.609 Q 0.754 -0.5740000000000001 0.754 -0.532 Q 0.754 -0.451 0.671 -0.385 Q 0.583 -0.316 0.47300000000000003 -0.316 L 0.303 -0.316 M 0.375 -0.614 L 0.307 -0.342 L 0.448 -0.342 Q 0.543 -0.342 0.602 -0.395 Q 0.643 -0.433 0.658 -0.522 L 0.658 -0.523 Q 0.661 -0.542 0.661 -0.556 Q 0.661 -0.652 0.525 -0.652 L 0.429 -0.652 Q 0.393 -0.652 0.385 -0.642 L 0.385 -0.642 L 0.385 -0.641 L 0.384 -0.641 L 0.384 -0.64 Q 0.38 -0.634 0.375 -0.614 Z" fill-opacity="1"/></g></g><g transform="scale(19,19)"><g transform="translate(20.42105263157895,21.36721052631579)"><path fill="rgb(0,0,0)" stroke="none" paint-order="stroke fill markers" d=" M 0.159 -0.078 L 0.159 -0.078 L 0.293 -0.615 Q 0.297 -0.631 0.297 -0.634 Q 0.297 -0.646 0.281 -0.649 L 0.28 -0.649 L 0.28 -0.649 Q 0.278 -0.65 0.275 -0.65 Q 0.251 -0.652 0.232 -0.652 Q 0.20600000000000002 -0.652 0.20400000000000001 -0.66 Q 0.203 -0.662 0.203 -0.664 Q 0.203 -0.681 0.22 -0.683 L 0.22 -0.683 L 0.233 -0.683 L 0.5690000000000001 -0.683 Q 0.6990000000000001 -0.683 0.763 -0.582 Q 0.804 -0.518 0.804 -0.43 Q 0.804 -0.28500000000000003 0.7030000000000001 -0.159 Q 0.607 -0.042 0.47700000000000004 -0.01 Q 0.438 0 0.399 0 L 0.068 0 Q 0.043000000000000003 0 0.041 -0.008 Q 0.04 -0.009000000000000001 0.04 -0.012 Q 0.04 -0.029 0.056 -0.031 L 0.068 -0.031 Q 0.133 -0.031 0.146 -0.045 Q 0.152 -0.052000000000000005 0.158 -0.073 Q 0.158 -0.074 0.159 -0.078 M 0.375 -0.614 L 0.23800000000000002 -0.065 Q 0.233 -0.047 0.233 -0.042 Q 0.233 -0.034 0.242 -0.032 L 0.242 -0.032 L 0.242 -0.032 L 0.246 -0.032 Q 0.252 -0.031 0.268 -0.031 L 0.381 -0.031 Q 0.505 -0.031 0.595 -0.124 Q 0.604 -0.134 0.612 -0.14400000000000002 Q 0.6920000000000001 -0.248 0.713 -0.41600000000000004 Q 0.717 -0.447 0.717 -0.467 Q 0.717 -0.601 0.612 -0.639 Q 0.578 -0.652 0.536 -0.652 L 0.429 -0.652 Q 0.393 -0.652 0.385 -0.642 L 0.385 -0.642 L 0.385 -0.641 L 0.384 -0.641 L 0.384 -0.64 Q 0.38 -0.634 0.375 -0.614 Z" fill-opacity="1"/></g></g><g transform="scale(19,19)"><g transform="translate(7.2631578947368425,17.36721052631579)"><path fill="rgb(0,0,0)" stroke="none" paint-order="stroke fill markers" d=" M 0.16 -0.078 L 0.294 -0.615 Q 0.298 -0.631 0.298 -0.634 Q 0.298 -0.646 0.28200000000000003 -0.649 L 0.281 -0.649 L 0.28 -0.649 Q 0.277 -0.649 0.271 -0.65 Q 0.254 -0.652 0.233 -0.652 Q 0.20700000000000002 -0.652 0.20500000000000002 -0.663 Q 0.20500000000000002 -0.681 0.22 -0.683 L 0.221 -0.683 L 0.222 -0.683 L 0.234 -0.683 L 0.5700000000000001 -0.683 Q 0.685 -0.683 0.734 -0.615 Q 0.756 -0.583 0.756 -0.545 Q 0.756 -0.464 0.666 -0.404 Q 0.665 -0.404 0.664 -0.403 Q 0.611 -0.369 0.547 -0.357 Q 0.649 -0.34500000000000003 0.687 -0.277 Q 0.7020000000000001 -0.249 0.7020000000000001 -0.216 Q 0.7020000000000001 -0.14300000000000002 0.632 -0.079 L 0.631 -0.078 Q 0.545 0 0.426 0 L 0.069 0 Q 0.044 0 0.042 -0.011 Q 0.042 -0.029 0.057 -0.031 L 0.069 -0.031 Q 0.134 -0.031 0.147 -0.045 Q 0.153 -0.052000000000000005 0.159 -0.073 Q 0.159 -0.074 0.16 -0.078 M 0.311 -0.366 L 0.457 -0.366 Q 0.556 -0.366 0.62 -0.438 Q 0.665 -0.489 0.665 -0.549 Q 0.665 -0.622 0.605 -0.644 Q 0.584 -0.652 0.556 -0.652 L 0.427 -0.652 Q 0.391 -0.652 0.383 -0.642 L 0.383 -0.642 L 0.383 -0.641 L 0.382 -0.641 L 0.382 -0.64 Q 0.378 -0.634 0.373 -0.614 L 0.311 -0.366 M 0.266 -0.031 L 0.402 -0.031 Q 0.498 -0.031 0.561 -0.10300000000000001 Q 0.609 -0.159 0.609 -0.227 Q 0.609 -0.3 0.557 -0.33 Q 0.531 -0.34400000000000003 0.494 -0.34400000000000003 L 0.305 -0.34400000000000003 L 0.23600000000000002 -0.065 Q 0.231 -0.047 0.231 -0.042 Q 0.231 -0.034 0.24 -0.032 L 0.24 -0.032 L 0.24 -0.032 L 0.244 -0.032 Q 0.25 -0.031 0.266 -0.031 Z" fill-opacity="1"/></g></g></g></g></svg>