<svg width="140.8917" height="199.1622" xmlns="http://www.w3.org/2000/svg" xmlns:xlink="http://www.w3.org/1999/xlink">
 <g>
  <title>background</title>
  <rect fill="none" id="canvas_background" height="602" width="802" y="-1" x="-1"/>
 </g>
 <g>
  <title>Layer 1</title>
  <path id="svg_1" d="m63.2935,67.5285c-31.8823,0 -57.7245,25.7793 -57.7245,57.5833c0,31.8048 25.8422,57.5841 57.7245,57.5841c31.883,0 57.7252,-25.7793 57.7252,-57.5841c0,-31.8039 -25.8429,-57.5833 -57.7252,-57.5833l0,0z" stroke-miterlimit="8" stroke-linejoin="round" stroke-linecap="round" stroke-width="0.75" stroke="#000000" fill="none"/>
  <line id="svg_2" y2="81.9779" x2="25.0084" y1="125.5645" x1="63.5553" stroke-miterlimit="8" stroke-linejoin="round" stroke-linecap="round" stroke-width="0.75" stroke="#000000" fill="none"/>
  <line id="svg_3" y2="115.0587" x2="120.0184" y1="125.5645" x1="63.5553" stroke-miterlimit="8" stroke-linejoin="round" stroke-linecap="round" stroke-width="0.75" stroke="#000000" fill="none"/>
  <line id="svg_4" y2="81.9779" x2="25.0084" y1="181.2232" x1="75.3239" stroke-miterlimit="8" stroke-linejoin="round" stroke-linecap="round" stroke-width="0.75" stroke="#000000" fill="none"/>
  <line id="svg_5" y2="115.0587" x2="120.0184" y1="181.2232" x1="75.3239" stroke-miterlimit="8" stroke-linejoin="round" stroke-linecap="round" stroke-width="0.75" stroke="#000000" fill="none"/>
  <line id="svg_6" y2="18.2865" x2="50.9289" y1="82.2921" x1="24.8861" stroke-miterlimit="8" stroke-linejoin="round" stroke-linecap="round" stroke-width="0.75" stroke="#CC761F" fill="none"/>
  <line id="svg_7" y2="82.2921" x2="24.8861" y1="142.5331" x1="0.375" stroke-miterlimit="8" stroke-linejoin="round" stroke-linecap="round" stroke-width="0.75" stroke="#000000" fill="none"/>
  <line id="svg_8" y2="136.7811" x2="135.5032" y1="115.0498" x1="119.9927" stroke-miterlimit="8" stroke-linejoin="round" stroke-linecap="round" stroke-width="0.75" stroke="#000000" fill="none"/>
  <line id="svg_9" y2="115.0498" x2="119.9927" y1="18.2865" x1="50.9289" stroke-miterlimit="8" stroke-linejoin="round" stroke-linecap="round" stroke-width="0.75" stroke="#CC761F" fill="none"/>
  <g id="svg_10">
   <g id="svg_11">
    <defs>
     <rect height="16.705" width="19.873" y="101.1751" x="121.0187" id="SVGID_1_"/>
    </defs>
    <clipPath id="SVGID_00000065787762419643213730000004775901485792293807_">
     <use id="svg_12" xlink:href="#SVGID_1_"/>
    </clipPath>
    <g id="svg_13" clip-path="url(#SVGID_00000065787762419643213730000004775901485792293807_)">
     <path id="svg_14" d="m128.2357,105.0921l0.909,8.223l5.728,-8.223l2.409,0l0,0.279c-0.523,0.035 -0.832,0.07 -0.924,0.104c-0.16,0.065 -0.308,0.196 -0.44,0.392c-0.134,0.196 -0.278,0.572 -0.434,1.13l-1.826,6.475c-0.106,0.377 -0.16,0.673 -0.16,0.889c0,0.196 0.065,0.344 0.196,0.444c0.185,0.146 0.476,0.219 0.873,0.219l0.175,0l-0.065,0.278l-4.155,0l0.072,-0.278l0.197,0c0.368,0 0.649,-0.056 0.844,-0.166c0.15,-0.08 0.285,-0.232 0.404,-0.455c0.118,-0.224 0.284,-0.72 0.498,-1.487l1.631,-5.918l-5.757,8.305l-0.292,0l-0.924,-8.305l-1.762,6.317c-0.15,0.537 -0.226,0.898 -0.226,1.084s0.066,0.327 0.197,0.425c0.131,0.099 0.448,0.165 0.953,0.2l-0.08,0.278l-3.253,0l0.08,-0.278l0.196,0c0.48,0 0.827,-0.126 1.041,-0.377c0.155,-0.181 0.317,-0.572 0.487,-1.175l2.146,-7.611c-0.16,-0.171 -0.313,-0.286 -0.458,-0.347s-0.415,-0.107 -0.808,-0.143l0.072,-0.279l2.456,0l0,0z"/>
    </g>
   </g>
  </g>
  <g id="svg_15">
   <g id="svg_16">
    <defs>
     <rect height="16.705" width="16.159" y="66.6681" x="9.8301" id="SVGID_00000096751720535504401830000013058668100243612554_"/>
    </defs>
    <clipPath id="SVGID_00000150789819667899806650000012960541746038147459_">
     <use id="svg_17" xlink:href="#SVGID_00000096751720535504401830000013058668100243612554_"/>
    </clipPath>
    <g id="svg_18" clip-path="url(#SVGID_00000150789819667899806650000012960541746038147459_)">
     <path id="svg_19" d="m17.3061,74.9901l2.447,3.908c0.437,0.693 0.799,1.136 1.085,1.329s0.663,0.29 1.129,0.29l-0.08,0.279l-4.21,0l0.065,-0.279c0.335,-0.035 0.572,-0.118 0.71,-0.248c0.138,-0.131 0.208,-0.279 0.208,-0.444c0,-0.151 -0.024,-0.296 -0.073,-0.437c-0.039,-0.1 -0.18,-0.346 -0.423,-0.738l-2.003,-3.245l-0.968,3.381c-0.161,0.542 -0.241,0.906 -0.241,1.092c0,0.191 0.068,0.336 0.204,0.437s0.471,0.168 1.005,0.203l-0.116,0.279l-3.904,0l0.095,-0.279c0.378,-0.01 0.633,-0.045 0.765,-0.105c0.194,-0.09 0.337,-0.206 0.43,-0.347c0.126,-0.206 0.281,-0.632 0.466,-1.28l1.741,-6.167c0.131,-0.472 0.197,-0.851 0.197,-1.137c0,-0.201 -0.062,-0.354 -0.186,-0.459s-0.366,-0.158 -0.725,-0.158l-0.146,0l0.087,-0.279l3.708,0l-0.073,0.279c-0.306,-0.005 -0.534,0.03 -0.685,0.105c-0.208,0.105 -0.361,0.241 -0.458,0.407s-0.24,0.58 -0.43,1.242l-0.765,2.62l3.511,-2.733c0.466,-0.362 0.772,-0.648 0.918,-0.858c0.087,-0.13 0.131,-0.249 0.131,-0.354c0,-0.09 -0.045,-0.178 -0.135,-0.264c-0.09,-0.085 -0.227,-0.14 -0.412,-0.166l0.073,-0.279l3.161,0l-0.065,0.279c-0.345,0.06 -0.635,0.139 -0.87,0.237c-0.236,0.098 -0.477,0.232 -0.725,0.403c-0.073,0.05 -0.546,0.421 -1.42,1.114l-3.023,2.372z"/>
    </g>
   </g>
  </g>
  <g id="svg_20">
   <g id="svg_21">
    <defs>
     <rect height="17.939" width="17.331" y="181.2232" x="71.7321" id="SVGID_00000125580136505277503200000008511811728818338984_"/>
    </defs>
    <clipPath id="SVGID_00000120535643935010247140000006110873725497063067_">
     <use id="svg_22" xlink:href="#SVGID_00000125580136505277503200000008511811728818338984_"/>
    </clipPath>
    <g id="svg_23" clip-path="url(#SVGID_00000120535643935010247140000006110873725497063067_)">
     <path id="svg_24" d="m78.9361,185.1362l3.04,7.981l1.646,-5.961c0.135,-0.491 0.203,-0.871 0.203,-1.142c0,-0.186 -0.063,-0.33 -0.188,-0.436c-0.126,-0.105 -0.36,-0.158 -0.704,-0.158c-0.058,0 -0.118,-0.002 -0.181,-0.007l0.079,-0.278l3.163,0l-0.087,0.278c-0.329,-0.005 -0.573,0.03 -0.732,0.104c-0.228,0.105 -0.397,0.24 -0.508,0.406c-0.155,0.235 -0.313,0.646 -0.472,1.231l-2.314,8.394l-0.261,0l-3.271,-8.589l-1.749,6.344c-0.13,0.481 -0.195,0.849 -0.195,1.104c0,0.19 0.059,0.334 0.178,0.432c0.118,0.098 0.4,0.164 0.845,0.199l-0.072,0.277l-3.09,0l0.102,-0.277c0.387,-0.011 0.646,-0.046 0.775,-0.105c0.198,-0.09 0.346,-0.208 0.443,-0.353c0.14,-0.221 0.297,-0.646 0.471,-1.277l1.952,-7.08c-0.189,-0.3 -0.391,-0.507 -0.606,-0.619c-0.215,-0.112 -0.55,-0.177 -1.005,-0.191l0.08,-0.278l2.458,0l0,0.001z"/>
    </g>
   </g>
  </g>
  <g id="svg_25">
   <g id="svg_26">
    <defs>
     <rect height="16.705" width="13.749" x="45.6996" id="SVGID_00000168795293716340752330000017230327389203559095_"/>
    </defs>
    <clipPath id="SVGID_00000104673495021989571440000011696806555886013862_">
     <use id="svg_27" xlink:href="#SVGID_00000168795293716340752330000017230327389203559095_"/>
    </clipPath>
    <g id="svg_28" clip-path="url(#SVGID_00000104673495021989571440000011696806555886013862_)">
     <path id="svg_29" d="m55.3206,14.135l-7.36,0l0.103,-0.279c0.391,-0.01 0.652,-0.042 0.784,-0.098c0.205,-0.09 0.356,-0.208 0.454,-0.354c0.151,-0.23 0.313,-0.647 0.483,-1.25l1.75,-6.212c0.146,-0.512 0.22,-0.889 0.22,-1.129c0,-0.191 -0.067,-0.339 -0.201,-0.444s-0.387,-0.158 -0.758,-0.158c-0.083,0 -0.149,-0.002 -0.198,-0.007l0.088,-0.279l4.05,0l-0.06,0.279c-0.454,0 -0.776,0.045 -0.967,0.136s-0.349,0.238 -0.476,0.444c-0.088,0.136 -0.232,0.557 -0.432,1.265l-1.721,6.106c-0.132,0.461 -0.198,0.783 -0.198,0.963c0,0.121 0.066,0.236 0.198,0.347c0.083,0.075 0.271,0.113 0.564,0.113l0.959,0c0.698,0 1.252,-0.09 1.663,-0.271c0.303,-0.136 0.581,-0.339 0.835,-0.61c0.136,-0.151 0.378,-0.524 0.725,-1.122l0.19,-0.339l0.271,0l-0.966,2.899z"/>
    </g>
   </g>
  </g>
  <g id="svg_30">
   <g id="svg_31">
    <defs>
     <rect height="17.94" width="14.987" y="124.6247" x="53.7801" id="SVGID_00000173839615601192409810000010003993771364026024_"/>
    </defs>
    <clipPath id="SVGID_00000031910737108932081950000008274046163226913675_">
     <use id="svg_32" xlink:href="#SVGID_00000173839615601192409810000010003993771364026024_"/>
    </clipPath>
    <g id="svg_33" clip-path="url(#SVGID_00000031910737108932081950000008274046163226913675_)">
     <path id="svg_34" d="m62.9691,128.3057c0.659,0 1.242,0.146 1.749,0.439s0.905,0.726 1.193,1.299s0.432,1.167 0.432,1.783c0,1.091 -0.309,2.236 -0.926,3.435c-0.617,1.199 -1.423,2.114 -2.418,2.745c-0.995,0.63 -2.024,0.945 -3.088,0.945c-0.766,0 -1.406,-0.174 -1.921,-0.521s-0.895,-0.808 -1.142,-1.378c-0.246,-0.57 -0.37,-1.124 -0.37,-1.659c0,-0.951 0.223,-1.891 0.67,-2.819c0.446,-0.929 0.979,-1.704 1.599,-2.328c0.62,-0.623 1.281,-1.102 1.983,-1.438c0.702,-0.335 1.449,-0.503 2.239,-0.503zm-0.249,0.48c-0.488,0 -0.965,0.124 -1.431,0.372c-0.466,0.247 -0.928,0.653 -1.387,1.216c-0.458,0.563 -0.871,1.301 -1.237,2.211c-0.449,1.122 -0.673,2.181 -0.673,3.177c0,0.711 0.178,1.34 0.534,1.888c0.356,0.549 0.902,0.822 1.639,0.822c0.444,0 0.879,-0.112 1.306,-0.338c0.427,-0.225 0.872,-0.61 1.335,-1.156c0.581,-0.686 1.068,-1.561 1.463,-2.624s0.593,-2.056 0.593,-2.977c0,-0.681 -0.178,-1.283 -0.534,-1.807c-0.354,-0.522 -0.89,-0.784 -1.608,-0.784z"/>
    </g>
   </g>
  </g>
  <path id="svg_35" d="m21.025,92.7521c0,0 1.9471,2.4324 4.7335,2.1861c2.7873,-0.2442 4.1703,-2.7015 4.1703,-2.7015" stroke-miterlimit="10" stroke-linejoin="round" stroke-linecap="round" stroke-width="0.75" stroke="#000000" fill="none"/>
  <path id="svg_36" d="m31.0331,93.1668c0,0 3.1156,-0.015 4.6535,-2.3517c1.54,-2.336 0.4733,-4.9462 0.4733,-4.9462" stroke-miterlimit="10" stroke-linejoin="round" stroke-linecap="round" stroke-width="0.75" stroke="#000000" fill="none"/>
  <path id="svg_37" d="m113.4828,113.3364c0,0 -1.7962,2.061 -1.1646,4.4394c0.6342,2.3798 2.9838,3.1917 2.9838,3.1917" stroke-miterlimit="10" stroke-linejoin="round" stroke-linecap="round" stroke-width="0.75" stroke="#000000" fill="none"/>
  <path id="svg_38" d="m111.8233,112.3721c0,0 -2.491,2.8361 -1.6147,6.1167c0.8763,3.2806 4.1368,4.4131 4.1368,4.4131" stroke-miterlimit="10" stroke-linejoin="round" stroke-linecap="round" stroke-width="0.75" stroke="#000000" fill="none"/>
  <path id="svg_39" d="m116.0997,121.2064c0,0 1.6565,2.1748 4.1134,2.0358c2.4588,-0.1414 3.7277,-2.279 3.7277,-2.279" stroke-miterlimit="10" stroke-linejoin="round" stroke-linecap="round" stroke-width="0.75" stroke="#000000" fill="none"/>
  <path id="svg_40" d="m114.9669,122.7273c0,0 2.1136,2.7973 5.2622,2.6144c3.1486,-0.1829 4.7894,-2.9369 4.7894,-2.9369" stroke-miterlimit="10" stroke-linejoin="round" stroke-linecap="round" stroke-width="0.75" stroke="#000000" fill="none"/>
  <line id="svg_41" y2="81.9779" x2="25.0084" y1="115.0587" x1="120.0184" stroke-miterlimit="8" stroke-linejoin="round" stroke-linecap="round" stroke-width="0.75" stroke="#CC761F" fill="none"/>
 </g>
</svg>