<svg width="209.63819999999998" height="146.8538" xmlns="http://www.w3.org/2000/svg" xmlns:xlink="http://www.w3.org/1999/xlink">
 <g>
  <title>background</title>
  <rect fill="none" id="canvas_background" height="602" width="802" y="-1" x="-1"/>
 </g>
 <g>
  <title>Layer 1</title>
  <line id="svg_1" y2="126.5652" x2="193.1281" y1="58.1669" x1="115.8551" stroke-miterlimit="8" stroke-linejoin="round" stroke-linecap="round" stroke-width="0.75" stroke="#007EA5" fill="none"/>
  <line id="svg_2" y2="17.2825" x2="121.3801" y1="127.1142" x1="13.1968" stroke-miterlimit="8" stroke-linejoin="round" stroke-linecap="round" stroke-width="0.75" stroke="#000000" fill="none"/>
  <line id="svg_3" y2="127.0205" x2="106.7994" y1="17.2825" x1="121.3801" stroke-miterlimit="8" stroke-linejoin="round" stroke-linecap="round" stroke-width="0.75" stroke="#000000" fill="none"/>
  <line id="svg_4" y2="127.3158" x2="194.2418" y1="127.2185" x1="106.7996" stroke-miterlimit="8" stroke-linejoin="round" stroke-linecap="round" stroke-width="0.75" stroke="#000000" fill="none"/>
  <line id="svg_5" y2="127.2185" x2="106.7996" y1="127.1142" x1="13.1968" stroke-miterlimit="8" stroke-linejoin="round" stroke-linecap="round" stroke-width="0.75" stroke="#CC761F" fill="none"/>
  <line id="svg_6" y2="127.1142" x2="13.1968" y1="58.3428" x1="116.2018" stroke-miterlimit="8" stroke-linejoin="round" stroke-linecap="round" stroke-width="0.75" stroke="#CC761F" fill="none"/>
  <line id="svg_7" y2="58.3428" x2="116.2018" y1="43.5702" x1="138.3281" stroke-miterlimit="8" stroke-linejoin="round" stroke-linecap="round" stroke-width="0.75" stroke="#000000" fill="none"/>
  <line id="svg_8" y2="17.2825" x2="121.3801" y1="127.3158" x1="194.2418" stroke-miterlimit="8" stroke-linejoin="round" stroke-linecap="round" stroke-width="0.75" stroke="#000000" fill="none"/>
  <line id="svg_9" y2="17.2174" x2="70.1864" y1="17.2174" x1="121.4452" stroke-miterlimit="8" stroke-linejoin="round" stroke-linecap="round" stroke-width="0.75" stroke="#000000" fill="none"/>
  <line id="svg_10" y2="58.1669" x2="115.8551" y1="17.2825" x1="69.666" stroke-miterlimit="8" stroke-linejoin="round" stroke-linecap="round" stroke-width="0.75" stroke="#000000" fill="none"/>
  <line id="svg_11" y2="58.5052" x2="148.6358" y1="58.5052" x1="115.9643" stroke-miterlimit="8" stroke-linejoin="round" stroke-linecap="round" stroke-width="0.75" stroke="#CC761F" fill="none"/>
  <line id="svg_12" y2="127.0205" x2="106.7994" y1="58.5052" x1="148.2888" stroke-miterlimit="8" stroke-linejoin="round" stroke-linecap="round" stroke-width="0.75" stroke="#CC761F" fill="none"/>
  <g id="svg_13">
   <g id="svg_14">
    <g id="svg_15">
     <g id="svg_16">
      <g id="svg_17">
       <g id="svg_18">
        <g id="svg_19">
         <g id="svg_20">
          <g id="svg_21">
           <g id="svg_22">
            <g id="svg_23">
             <g id="svg_24">
              <g id="svg_25">
               <g id="svg_26">
                <g id="svg_27">
                 <g id="svg_28">
                  <g id="svg_29">
                   <g id="svg_30">
                    <g id="svg_31">
                     <g id="svg_32">
                      <defs>
                       <rect height="16.694" width="15.125" y="127.3623" id="SVGID_1_"/>
                      </defs>
                      <clipPath id="SVGID_00000160901173890617606260000002921513250100223110_">
                       <use id="svg_33" xlink:href="#SVGID_1_"/>
                      </clipPath>
                      <g id="svg_34" clip-path="url(#SVGID_00000160901173890617606260000002921513250100223110_)">
                       <g id="svg_35">
                        <path id="svg_36" d="m11.5043,130.9103l-0.7607,8.4307c-0.0396,0.3936 -0.0591,0.6523 -0.0591,0.7773c0,0.1992 0.0366,0.3506 0.1108,0.4561c0.0933,0.1445 0.2202,0.251 0.3804,0.3213c0.1597,0.0693 0.4292,0.1045 0.8086,0.1045l-0.0811,0.2764l-3.9443,0l0.0815,-0.2764l0.1699,0c0.3198,0 0.5806,-0.0703 0.7827,-0.209c0.1426,-0.0947 0.2534,-0.252 0.3325,-0.4717c0.0542,-0.1543 0.1055,-0.5176 0.1548,-1.0908l0.1182,-1.2852l-2.8657,0l-1.019,1.3975c-0.2314,0.3135 -0.3765,0.5391 -0.4355,0.6758c-0.0591,0.1377 -0.0889,0.2656 -0.0889,0.3857c0,0.1592 0.064,0.2959 0.1919,0.4102c0.1284,0.1152 0.3398,0.1777 0.6353,0.1875l-0.0811,0.2764l-2.9619,0l0.0815,-0.2764c0.3643,-0.0146 0.6855,-0.1387 0.9639,-0.3701c0.2778,-0.2314 0.6929,-0.7266 1.2441,-1.4834l5.9824,-8.2363l0.2588,-0.0001l0,0zm-1.4624,2.4883l-2.9028,3.999l2.5186,0l0.3842,-3.999z"/>
                       </g>
                      </g>
                     </g>
                    </g>
                   </g>
                  </g>
                 </g>
                </g>
               </g>
              </g>
             </g>
            </g>
           </g>
          </g>
         </g>
        </g>
       </g>
      </g>
     </g>
    </g>
   </g>
  </g>
  <g id="svg_37">
   <g id="svg_38">
    <g id="svg_39">
     <g id="svg_40">
      <g id="svg_41">
       <g id="svg_42">
        <g id="svg_43">
         <g id="svg_44">
          <g id="svg_45">
           <g id="svg_46">
            <g id="svg_47">
             <g id="svg_48">
              <g id="svg_49">
               <g id="svg_50">
                <g id="svg_51">
                 <g id="svg_52">
                  <g id="svg_53">
                   <g id="svg_54">
                    <g id="svg_55">
                     <g id="svg_56">
                      <g id="svg_57">
                       <defs>
                        <rect height="16.695" width="15.124" y="0.2617" x="122.3559" id="SVGID_00000142135381547970855610000014562163751183432881_"/>
                       </defs>
                       <clipPath id="SVGID_00000073717545829645386320000010612958534497106873_">
                        <use id="svg_58" xlink:href="#SVGID_00000142135381547970855610000014562163751183432881_"/>
                       </clipPath>
                       <g id="svg_59" clip-path="url(#SVGID_00000073717545829645386320000010612958534497106873_)">
                        <g id="svg_60">
                         <path id="svg_61" d="m127.5576,4.3165l0.103,-0.2773l3.5747,0c0.6006,0 1.1357,0.0947 1.606,0.2842c0.4703,0.1895 0.8223,0.4541 1.0562,0.793s0.3506,0.6973 0.3506,1.0762c0,0.583 -0.208,1.1094 -0.624,1.5801s-1.0942,0.8184 -2.0342,1.042c0.6055,0.2305 1.0508,0.5342 1.3364,0.9121c0.2856,0.3789 0.4282,0.7949 0.4282,1.248c0,0.5039 -0.1279,0.9844 -0.3838,1.4424c-0.2563,0.459 -0.585,0.8154 -0.9858,1.0693c-0.4014,0.2539 -0.8853,0.4404 -1.4512,0.5605c-0.4038,0.085 -1.0342,0.127 -1.8906,0.127l-3.6704,0l0.0962,-0.2764c0.3838,-0.0098 0.645,-0.0479 0.7827,-0.1123c0.1968,-0.085 0.3369,-0.1963 0.4209,-0.3359c0.1182,-0.1895 0.2759,-0.623 0.4727,-1.3008l1.7944,-6.1357c0.1528,-0.5186 0.229,-0.8818 0.229,-1.0908c0,-0.1846 -0.0679,-0.3301 -0.2031,-0.4375s-0.3926,-0.1611 -0.7715,-0.1611c-0.0841,-0.0001 -0.1627,-0.002 -0.2364,-0.007zm0.0439,9.2002c0.5317,0.0693 0.9478,0.1045 1.248,0.1045c0.7681,0 1.4487,-0.2344 2.042,-0.7031c0.5933,-0.4678 0.8901,-1.1035 0.8901,-1.9053c0,-0.6133 -0.1836,-1.0918 -0.5503,-1.4355s-0.959,-0.5156 -1.7759,-0.5156c-0.1577,0 -0.3496,0.0078 -0.5762,0.0225l-1.2777,4.4325zm1.4551,-4.9931c0.3198,0.0098 0.5513,0.0156 0.6943,0.0156c1.0239,0 1.7856,-0.2266 2.2856,-0.6768c0.4995,-0.4512 0.7495,-1.0146 0.7495,-1.6924c0,-0.5137 -0.1528,-0.9131 -0.458,-1.2002c-0.3052,-0.2861 -0.7925,-0.4297 -1.4624,-0.4297c-0.1772,0 -0.4033,0.0303 -0.6792,0.0898l-1.1298,3.8937z"/>
                        </g>
                       </g>
                      </g>
                     </g>
                    </g>
                   </g>
                  </g>
                 </g>
                </g>
               </g>
              </g>
             </g>
            </g>
           </g>
          </g>
         </g>
        </g>
       </g>
      </g>
     </g>
    </g>
   </g>
  </g>
  <g id="svg_62">
   <g id="svg_63">
    <g id="svg_64">
     <g id="svg_65">
      <g id="svg_66">
       <g id="svg_67">
        <g id="svg_68">
         <g id="svg_69">
          <g id="svg_70">
           <g id="svg_71">
            <g id="svg_72">
             <g id="svg_73">
              <g id="svg_74">
               <g id="svg_75">
                <g id="svg_76">
                 <g id="svg_77">
                  <g id="svg_78">
                   <g id="svg_79">
                    <g id="svg_80">
                     <g id="svg_81">
                      <g id="svg_82">
                       <defs>
                        <rect height="18.079" width="16.51" y="126.6699" x="193.1281" id="SVGID_00000058573615340676040670000006867501790743132849_"/>
                       </defs>
                       <clipPath id="SVGID_00000086653407414502669200000014935563510355690154_">
                        <use id="svg_83" xlink:href="#SVGID_00000058573615340676040670000006867501790743132849_"/>
                       </clipPath>
                       <g id="svg_84" clip-path="url(#SVGID_00000086653407414502669200000014935563510355690154_)">
                        <g id="svg_85">
                         <path id="svg_86" d="m205.8492,130.2257l-0.7466,3.2793l-0.2656,0l-0.0298,-0.8223c-0.0249,-0.2988 -0.0811,-0.5645 -0.1699,-0.7988c-0.0888,-0.2343 -0.2217,-0.4375 -0.3989,-0.6084c-0.1772,-0.1719 -0.4014,-0.3066 -0.6724,-0.4033c-0.271,-0.0977 -0.5713,-0.1465 -0.9014,-0.1465c-0.8818,0 -1.6528,0.2441 -2.3125,0.7324c-0.8423,0.6221 -1.5024,1.501 -1.9805,2.6367c-0.394,0.9355 -0.5908,1.8848 -0.5908,2.8457c0,0.9805 0.2832,1.7637 0.8496,2.3486c0.5664,0.5849 1.3027,0.8779 2.209,0.8779c0.6846,0 1.2944,-0.1543 1.8286,-0.4639c0.5347,-0.3086 1.0308,-0.7842 1.4888,-1.4258l0.3477,0c-0.542,0.8711 -1.1431,1.5117 -1.8027,1.9229c-0.6602,0.4111 -1.4507,0.6162 -2.3721,0.6162c-0.8174,0 -1.5415,-0.1729 -2.1719,-0.5186c-0.6309,-0.3467 -1.1108,-0.833 -1.4409,-1.4609c-0.3301,-0.627 -0.4951,-1.3018 -0.4951,-2.0234c0,-1.1055 0.293,-2.1816 0.8794,-3.2266c0.5859,-1.0459 1.3901,-1.8672 2.4121,-2.4648s2.0527,-0.8965 3.0923,-0.8965c0.4878,0 1.0342,0.1172 1.6401,0.3506c0.2661,0.0996 0.458,0.1494 0.5762,0.1494c0.1182,0 0.2217,-0.0244 0.3105,-0.0742c0.0884,-0.0498 0.2363,-0.1914 0.4434,-0.4258l0.2734,0.0001l0,0z"/>
                        </g>
                       </g>
                      </g>
                     </g>
                    </g>
                   </g>
                  </g>
                 </g>
                </g>
               </g>
              </g>
             </g>
            </g>
           </g>
          </g>
         </g>
        </g>
       </g>
      </g>
     </g>
    </g>
   </g>
  </g>
  <g id="svg_87">
   <g id="svg_88">
    <g id="svg_89">
     <g id="svg_90">
      <g id="svg_91">
       <g id="svg_92">
        <g id="svg_93">
         <g id="svg_94">
          <g id="svg_95">
           <g id="svg_96">
            <g id="svg_97">
             <g id="svg_98">
              <g id="svg_99">
               <g id="svg_100">
                <g id="svg_101">
                 <g id="svg_102">
                  <g id="svg_103">
                   <g id="svg_104">
                    <g id="svg_105">
                     <g id="svg_106">
                      <g id="svg_107">
                       <defs>
                        <rect height="22.289" width="17.896" y="42.7746" x="148.6358" id="SVGID_00000034088712500304203000000016801473261339727244_"/>
                       </defs>
                       <clipPath id="SVGID_00000181786311644816572730000004994807377273383087_">
                        <use id="svg_108" xlink:href="#SVGID_00000034088712500304203000000016801473261339727244_"/>
                       </clipPath>
                       <g id="svg_109" clip-path="url(#SVGID_00000181786311644816572730000004994807377273383087_)">
                        <g id="svg_110">
                         <path id="svg_111" d="m160.4582,56.5798l1.4619,-0.7227l0.1465,0l0,5.1348c0,0.3408 0.0137,0.5537 0.042,0.6377c0.0278,0.083 0.0864,0.1475 0.1748,0.1924c0.0889,0.0449 0.269,0.0703 0.5405,0.0762l0,0.166l-2.2593,0l0,-0.166c0.2837,-0.0059 0.4668,-0.0303 0.5493,-0.0742c0.0825,-0.043 0.1401,-0.1016 0.1729,-0.1748s0.0488,-0.292 0.0488,-0.6572l0,-3.2822c0,-0.4424 -0.0151,-0.7266 -0.0444,-0.8525c-0.0205,-0.0957 -0.0581,-0.166 -0.1128,-0.2109c-0.0547,-0.0439 -0.1206,-0.0664 -0.1973,-0.0664c-0.1094,0 -0.2612,0.0459 -0.4561,0.1387l-0.0668,-0.1389z"/>
                        </g>
                       </g>
                      </g>
                     </g>
                    </g>
                   </g>
                  </g>
                 </g>
                </g>
               </g>
              </g>
             </g>
            </g>
           </g>
          </g>
         </g>
        </g>
       </g>
      </g>
     </g>
    </g>
   </g>
   <g id="svg_112">
    <g id="svg_113">
     <g id="svg_114">
      <g id="svg_115">
       <g id="svg_116">
        <g id="svg_117">
         <g id="svg_118">
          <g id="svg_119">
           <g id="svg_120">
            <g id="svg_121">
             <g id="svg_122">
              <g id="svg_123">
               <g id="svg_124">
                <g id="svg_125">
                 <g id="svg_126">
                  <g id="svg_127">
                   <g id="svg_128">
                    <g id="svg_129">
                     <g id="svg_130">
                      <g id="svg_131">
                       <defs>
                        <rect height="22.289" width="17.896" y="42.7746" x="148.6358" id="SVGID_00000049942464324973947610000000014562645524851329_"/>
                       </defs>
                       <clipPath id="SVGID_00000121238588653692225170000008955449848893857944_">
                        <use id="svg_132" xlink:href="#SVGID_00000049942464324973947610000000014562645524851329_"/>
                       </clipPath>
                       <g id="svg_133" clip-path="url(#SVGID_00000121238588653692225170000008955449848893857944_)">
                        <g id="svg_134">
                         <path id="svg_135" d="m160.1295,47.7195l-0.7612,8.4395c-0.0396,0.3936 -0.0591,0.6533 -0.0591,0.7783c0,0.1992 0.0366,0.3516 0.1108,0.4561c0.0933,0.1445 0.2202,0.252 0.3804,0.3213c0.1602,0.0703 0.4302,0.1055 0.8096,0.1055l-0.0815,0.2764l-3.9463,0l0.0811,-0.2764l0.1699,0c0.3203,0 0.5815,-0.0703 0.7837,-0.21c0.1426,-0.0947 0.2534,-0.252 0.3325,-0.4717c0.0542,-0.1543 0.106,-0.5186 0.1553,-1.0918l0.1182,-1.2871l-2.8677,0l-1.0195,1.3994c-0.2319,0.3145 -0.377,0.54 -0.436,0.6768c-0.0591,0.1377 -0.0889,0.2656 -0.0889,0.3857c0,0.1592 0.064,0.2969 0.1924,0.4111c0.1279,0.1152 0.3398,0.1768 0.6353,0.1875l-0.0811,0.2764l-2.9639,0l0.0815,-0.2764c0.3647,-0.0156 0.686,-0.1387 0.9644,-0.3711c0.2783,-0.2314 0.6934,-0.7266 1.2451,-1.4844l5.9863,-8.2451l0.2587,0l0,0zm-1.4633,2.4912l-2.9043,4.0029l2.52,0l0.3843,-4.0029z"/>
                        </g>
                       </g>
                      </g>
                     </g>
                    </g>
                   </g>
                  </g>
                 </g>
                </g>
               </g>
              </g>
             </g>
            </g>
           </g>
          </g>
         </g>
        </g>
       </g>
      </g>
     </g>
    </g>
   </g>
  </g>
  <g id="svg_136">
   <g id="svg_137">
    <g id="svg_138">
     <g id="svg_139">
      <g id="svg_140">
       <g id="svg_141">
        <g id="svg_142">
         <g id="svg_143">
          <g id="svg_144">
           <g id="svg_145">
            <g id="svg_146">
             <g id="svg_147">
              <g id="svg_148">
               <g id="svg_149">
                <g id="svg_150">
                 <g id="svg_151">
                  <g id="svg_152">
                   <g id="svg_153">
                    <g id="svg_154">
                     <g id="svg_155">
                      <g id="svg_156">
                       <defs>
                        <rect height="22.289" width="17.889" y="124.5648" x="96.8238" id="SVGID_00000127016354702184734560000017366220769127778235_"/>
                       </defs>
                       <clipPath id="SVGID_00000058558762810777341120000007714596742900231094_">
                        <use id="svg_157" xlink:href="#SVGID_00000127016354702184734560000017366220769127778235_"/>
                       </clipPath>
                       <g id="svg_158" clip-path="url(#SVGID_00000058558762810777341120000007714596742900231094_)">
                        <g id="svg_159">
                         <path id="svg_160" d="m108.6358,138.3696l1.4619,-0.7227l0.1465,0l0,5.1348c0,0.3408 0.0137,0.5537 0.042,0.6377c0.0278,0.083 0.0864,0.1475 0.1748,0.1924c0.0889,0.0449 0.269,0.0703 0.5405,0.0762l0,0.166l-2.2593,0l0,-0.166c0.2837,-0.0059 0.4668,-0.0303 0.5493,-0.0742c0.0825,-0.043 0.1401,-0.1016 0.1729,-0.1748c0.0328,-0.0732 0.0488,-0.292 0.0488,-0.6572l0,-3.2822c0,-0.4424 -0.0151,-0.7266 -0.0444,-0.8525c-0.0205,-0.0957 -0.0581,-0.166 -0.1128,-0.2109c-0.0547,-0.0439 -0.1206,-0.0664 -0.1973,-0.0664c-0.1094,0 -0.2612,0.0459 -0.4561,0.1387l-0.0668,-0.1389z"/>
                        </g>
                       </g>
                      </g>
                     </g>
                    </g>
                   </g>
                  </g>
                 </g>
                </g>
               </g>
              </g>
             </g>
            </g>
           </g>
          </g>
         </g>
        </g>
       </g>
      </g>
     </g>
    </g>
   </g>
   <g id="svg_161">
    <g id="svg_162">
     <g id="svg_163">
      <g id="svg_164">
       <g id="svg_165">
        <g id="svg_166">
         <g id="svg_167">
          <g id="svg_168">
           <g id="svg_169">
            <g id="svg_170">
             <g id="svg_171">
              <g id="svg_172">
               <g id="svg_173">
                <g id="svg_174">
                 <g id="svg_175">
                  <g id="svg_176">
                   <g id="svg_177">
                    <g id="svg_178">
                     <g id="svg_179">
                      <g id="svg_180">
                       <defs>
                        <rect height="22.289" width="17.889" y="124.5648" x="96.8238" id="SVGID_00000181089421506337480630000003536474470359820676_"/>
                       </defs>
                       <clipPath id="SVGID_00000177486155309620575210000003604273754670639505_">
                        <use id="svg_181" xlink:href="#SVGID_00000181089421506337480630000003536474470359820676_"/>
                       </clipPath>
                       <g id="svg_182" clip-path="url(#SVGID_00000177486155309620575210000003604273754670639505_)">
                        <g id="svg_183">
                         <path id="svg_184" d="m102.0366,130.0181l0.1035,-0.2773l3.5767,0c0.6011,0 1.1372,0.0957 1.6074,0.2852c0.4707,0.1895 0.8228,0.4531 1.0571,0.793c0.2339,0.3389 0.3511,0.6982 0.3511,1.0771c0,0.583 -0.2085,1.1113 -0.6245,1.582c-0.4165,0.4717 -1.0952,0.8193 -2.0361,1.0439c0.606,0.2295 1.0518,0.5342 1.3374,0.9131c0.2861,0.3789 0.4287,0.7949 0.4287,1.249c0,0.5039 -0.1279,0.9854 -0.3843,1.4443s-0.585,0.8154 -0.9863,1.0693c-0.4019,0.2549 -0.8857,0.4414 -1.4521,0.5615c-0.4043,0.085 -1.0347,0.127 -1.8921,0.127l-3.6729,0l0.0957,-0.2764c0.3843,-0.0107 0.6455,-0.0479 0.7837,-0.1123c0.1968,-0.085 0.3374,-0.1973 0.4209,-0.3369c0.1187,-0.1895 0.2759,-0.624 0.4731,-1.3018l1.7959,-6.1426c0.1528,-0.5186 0.229,-0.8828 0.229,-1.0928c0,-0.1836 -0.0679,-0.3301 -0.2031,-0.4375c-0.1357,-0.1064 -0.3931,-0.1602 -0.7725,-0.1602c-0.0834,0.0001 -0.1625,-0.0029 -0.2363,-0.0076zm0.0445,9.2099c0.5322,0.0693 0.9482,0.1045 1.249,0.1045c0.7686,0 1.4497,-0.2344 2.0435,-0.7031c0.5933,-0.4688 0.8901,-1.1045 0.8901,-1.9082c0,-0.6133 -0.1836,-1.0918 -0.5503,-1.4365c-0.3672,-0.3438 -0.9595,-0.5156 -1.7773,-0.5156c-0.1577,0 -0.3501,0.0068 -0.5767,0.0225l-1.2783,4.4364zm1.4555,-4.9981c0.3203,0.0098 0.5518,0.0146 0.6948,0.0146c1.0249,0 1.7871,-0.2256 2.2876,-0.6768c0.5,-0.4512 0.75,-1.0156 0.75,-1.6943c0,-0.5137 -0.1528,-0.9141 -0.4585,-1.2012c-0.3052,-0.2861 -0.793,-0.4297 -1.4629,-0.4297c-0.1777,0 -0.4043,0.0293 -0.6802,0.0898l-1.1308,3.8976z"/>
                        </g>
                       </g>
                      </g>
                     </g>
                    </g>
                   </g>
                  </g>
                 </g>
                </g>
               </g>
              </g>
             </g>
            </g>
           </g>
          </g>
         </g>
        </g>
       </g>
      </g>
     </g>
    </g>
   </g>
  </g>
  <g id="svg_185">
   <g id="svg_186">
    <g id="svg_187">
     <g id="svg_188">
      <g id="svg_189">
       <g id="svg_190">
        <g id="svg_191">
         <g id="svg_192">
          <g id="svg_193">
           <g id="svg_194">
            <g id="svg_195">
             <g id="svg_196">
              <g id="svg_197">
               <g id="svg_198">
                <g id="svg_199">
                 <g id="svg_200">
                  <g id="svg_201">
                   <g id="svg_202">
                    <g id="svg_203">
                     <g id="svg_204">
                      <g id="svg_205">
                       <defs>
                        <rect height="22.285" width="17.888" y="17.2174" x="85.8313" id="SVGID_00000048498052990226896480000011896301709355165362_"/>
                       </defs>
                       <clipPath id="SVGID_00000053521250352944416010000017413953026212259254_">
                        <use id="svg_206" xlink:href="#SVGID_00000048498052990226896480000011896301709355165362_"/>
                       </clipPath>
                       <g id="svg_207" clip-path="url(#SVGID_00000053521250352944416010000017413953026212259254_)">
                        <g id="svg_208">
                         <path id="svg_209" d="m98.167,31.0045l1.4619,-0.7227l0.1465,0l0,5.1348c0,0.3408 0.0137,0.5537 0.042,0.6377c0.0278,0.083 0.0864,0.1475 0.1748,0.1924c0.0889,0.0449 0.269,0.0703 0.5405,0.0762l0,0.166l-2.2593,0l0,-0.166c0.2837,-0.0059 0.4668,-0.0303 0.5493,-0.0742c0.0825,-0.043 0.1401,-0.1016 0.1729,-0.1748s0.0488,-0.292 0.0488,-0.6572l0,-3.2822c0,-0.4424 -0.0151,-0.7266 -0.0444,-0.8525c-0.0205,-0.0957 -0.0581,-0.166 -0.1128,-0.2109c-0.0547,-0.0439 -0.1206,-0.0664 -0.1973,-0.0664c-0.1094,0 -0.2612,0.0459 -0.4561,0.1387l-0.0668,-0.1389z"/>
                        </g>
                       </g>
                      </g>
                     </g>
                    </g>
                   </g>
                  </g>
                 </g>
                </g>
               </g>
              </g>
             </g>
            </g>
           </g>
          </g>
         </g>
        </g>
       </g>
      </g>
     </g>
    </g>
   </g>
   <g id="svg_210">
    <g id="svg_211">
     <g id="svg_212">
      <g id="svg_213">
       <g id="svg_214">
        <g id="svg_215">
         <g id="svg_216">
          <g id="svg_217">
           <g id="svg_218">
            <g id="svg_219">
             <g id="svg_220">
              <g id="svg_221">
               <g id="svg_222">
                <g id="svg_223">
                 <g id="svg_224">
                  <g id="svg_225">
                   <g id="svg_226">
                    <g id="svg_227">
                     <g id="svg_228">
                      <g id="svg_229">
                       <defs>
                        <rect height="22.285" width="17.888" y="17.2174" x="85.8313" id="SVGID_00000080208949993663642440000007008372503339293596_"/>
                       </defs>
                       <clipPath id="SVGID_00000172403907261112893890000017124921317022018490_">
                        <use id="svg_230" xlink:href="#SVGID_00000080208949993663642440000007008372503339293596_"/>
                       </clipPath>
                       <g id="svg_231" clip-path="url(#SVGID_00000172403907261112893890000017124921317022018490_)">
                        <g id="svg_232">
                         <path id="svg_233" d="m98.5449,22.156l-0.7466,3.284l-0.2656,0l-0.0298,-0.8223c-0.0249,-0.2998 -0.0815,-0.5664 -0.1699,-0.8008c-0.0889,-0.2344 -0.2217,-0.4375 -0.3989,-0.6104c-0.1777,-0.1719 -0.4019,-0.3066 -0.6729,-0.4033c-0.271,-0.0977 -0.5713,-0.1465 -0.9014,-0.1465c-0.8823,0 -1.6533,0.2451 -2.3135,0.7334c-0.8423,0.624 -1.5024,1.5039 -1.9805,2.6406c-0.394,0.9385 -0.5913,1.8887 -0.5913,2.8506c0,0.9834 0.2832,1.7676 0.8501,2.3535c0.5664,0.5859 1.3032,0.8789 2.2095,0.8789c0.6851,0 1.2944,-0.1543 1.8291,-0.4639s1.0312,-0.7852 1.4893,-1.4287l0.3472,0c-0.542,0.873 -1.1431,1.5146 -1.8032,1.9258c-0.6602,0.4121 -1.4507,0.6172 -2.3721,0.6172c-0.8179,0 -1.542,-0.1729 -2.1729,-0.5195s-1.1108,-0.834 -1.4409,-1.4629c-0.3301,-0.6279 -0.4951,-1.3037 -0.4951,-2.0273c0,-1.1074 0.293,-2.1846 0.8794,-3.2314c0.5859,-1.0479 1.3906,-1.8711 2.4126,-2.4697c1.0225,-0.5986 2.0537,-0.8975 3.0933,-0.8975c0.4878,0 1.0347,0.1172 1.6406,0.3516c0.2661,0.0996 0.458,0.1494 0.5762,0.1494s0.2217,-0.0244 0.3105,-0.0742s0.2363,-0.1924 0.4434,-0.4268l0.2734,0c0,-0.0001 0,0.0002 0,0.0002z"/>
                        </g>
                       </g>
                      </g>
                     </g>
                    </g>
                   </g>
                  </g>
                 </g>
                </g>
               </g>
              </g>
             </g>
            </g>
           </g>
          </g>
         </g>
        </g>
       </g>
      </g>
     </g>
    </g>
   </g>
  </g>
  <g id="svg_234">
   <g id="svg_235">
    <g id="svg_236">
     <g id="svg_237">
      <g id="svg_238">
       <g id="svg_239">
        <g id="svg_240">
         <g id="svg_241">
          <g id="svg_242">
           <g id="svg_243">
            <g id="svg_244">
             <g id="svg_245">
              <g id="svg_246">
               <g id="svg_247">
                <g id="svg_248">
                 <g id="svg_249">
                  <g id="svg_250">
                   <g id="svg_251">
                    <g id="svg_252">
                     <g id="svg_253">
                      <g id="svg_254">
                       <defs>
                        <rect height="16.699" width="16.507" y="63.5743" x="112.3562" id="SVGID_00000083768834482199337920000005741994257242718353_"/>
                       </defs>
                       <clipPath id="SVGID_00000037670847162461592150000013284557748231164058_">
                        <use id="svg_255" xlink:href="#SVGID_00000083768834482199337920000005741994257242718353_"/>
                       </clipPath>
                       <g id="svg_256" clip-path="url(#SVGID_00000037670847162461592150000013284557748231164058_)">
                        <g id="svg_257">
                         <path id="svg_258" d="m117.5374,67.6298l0.0889,-0.2773l3.1987,0c1.3545,0 2.3579,0.1572 3.0107,0.4717c0.6523,0.3135 1.1733,0.8076 1.5625,1.4834c0.3892,0.6748 0.5835,1.3984 0.5835,2.1709c0,0.6621 -0.1118,1.3066 -0.3359,1.9316c-0.2241,0.626 -0.478,1.126 -0.7612,1.502c-0.2832,0.377 -0.7178,0.792 -1.3037,1.2451c-0.5864,0.4531 -1.2217,0.7881 -1.9062,1.0049s-1.5391,0.3252 -2.5635,0.3252l-4.2407,0l0.0962,-0.2764c0.3887,-0.0098 0.6499,-0.0449 0.7832,-0.1045c0.1968,-0.085 0.3423,-0.1992 0.4355,-0.3438c0.1431,-0.21 0.3032,-0.6309 0.4805,-1.2637l1.7729,-6.1279c0.1377,-0.4834 0.207,-0.8623 0.207,-1.1357c0,-0.1943 -0.064,-0.3447 -0.1924,-0.4492c-0.1279,-0.1045 -0.3794,-0.1562 -0.7534,-0.1562l-0.1626,-0.0001l0,0zm2.6226,0.2832l-2.1719,7.5859c-0.1626,0.5684 -0.2437,0.9199 -0.2437,1.0537c0,0.0801 0.0259,0.1572 0.0776,0.2324c0.0518,0.0742 0.1216,0.124 0.2104,0.1494c0.1279,0.0449 0.335,0.0674 0.6206,0.0674c0.7729,0 1.4912,-0.0811 2.1533,-0.2432c0.6626,-0.1621 1.2056,-0.4023 1.6294,-0.7217c0.6006,-0.4629 1.0811,-1.1006 1.4404,-1.9131s0.5396,-1.7363 0.5396,-2.7725c0,-1.1709 -0.2759,-2.042 -0.8276,-2.6123s-1.3569,-0.8555 -2.416,-0.8555c-0.2607,0.0002 -0.5981,0.0099 -1.0121,0.0295z"/>
                        </g>
                       </g>
                      </g>
                     </g>
                    </g>
                   </g>
                  </g>
                 </g>
                </g>
               </g>
              </g>
             </g>
            </g>
           </g>
          </g>
         </g>
        </g>
       </g>
      </g>
     </g>
    </g>
   </g>
  </g>
  <g id="svg_259">
   <g id="svg_260">
    <g id="svg_261">
     <g id="svg_262">
      <g id="svg_263">
       <g id="svg_264">
        <g id="svg_265">
         <g id="svg_266">
          <g id="svg_267">
           <g id="svg_268">
            <g id="svg_269">
             <g id="svg_270">
              <g id="svg_271">
               <g id="svg_272">
                <g id="svg_273">
                 <g id="svg_274">
                  <g id="svg_275">
                   <g id="svg_276">
                    <g id="svg_277">
                     <g id="svg_278">
                      <g id="svg_279">
                       <defs>
                        <rect height="16.697" width="19.2" y="29.2353" x="139.0358" id="SVGID_00000103959632274901975860000006035177157900997764_"/>
                       </defs>
                       <clipPath id="SVGID_00000018921348924531418080000005458718490503412110_">
                        <use id="svg_280" xlink:href="#SVGID_00000103959632274901975860000006035177157900997764_"/>
                       </clipPath>
                       <g id="svg_281" clip-path="url(#SVGID_00000018921348924531418080000005458718490503412110_)">
                        <g id="svg_282">
                         <path id="svg_283" d="m145.712,37.5358l4.6113,0l0.7295,-2.5029c0.1372,-0.4883 0.2061,-0.8672 0.2061,-1.1357c0,-0.1299 -0.0308,-0.2412 -0.0918,-0.333c-0.0615,-0.0918 -0.1562,-0.1611 -0.2837,-0.2061c-0.1279,-0.0439 -0.3784,-0.0664 -0.7515,-0.0664l0.0737,-0.2773l4.022,0l-0.0884,0.2773c-0.3389,-0.0049 -0.5918,0.0293 -0.7588,0.1045c-0.2358,0.1045 -0.4102,0.2393 -0.5229,0.4033c-0.1621,0.2344 -0.3267,0.6455 -0.4937,1.2334l-1.7603,6.1211c-0.1475,0.5078 -0.2212,0.8721 -0.2212,1.0908c0,0.1895 0.0649,0.333 0.1953,0.4297c0.1299,0.0977 0.4404,0.1631 0.9316,0.1982l-0.0811,0.2764l-3.8892,0l0.103,-0.2764c0.3833,-0.0098 0.6382,-0.0449 0.7661,-0.1045c0.1963,-0.0898 0.3389,-0.2041 0.4272,-0.3438c0.1274,-0.1943 0.2847,-0.6182 0.4712,-1.2705l0.8989,-3.1025l-4.6333,0l-0.9062,3.1025c-0.1426,0.498 -0.2134,0.8613 -0.2134,1.0908c0,0.1895 0.0635,0.333 0.1914,0.4297c0.1274,0.0977 0.437,0.1631 0.9282,0.1982l-0.0591,0.2764l-3.9189,0l0.0957,-0.2764c0.3882,-0.0098 0.646,-0.0449 0.7739,-0.1045c0.1963,-0.0898 0.3408,-0.2041 0.4346,-0.3438c0.1274,-0.2051 0.2847,-0.6279 0.4712,-1.2705l1.7681,-6.1211c0.1421,-0.498 0.2134,-0.877 0.2134,-1.1357c0,-0.1299 -0.0308,-0.2412 -0.0918,-0.333c-0.0615,-0.0918 -0.1572,-0.1611 -0.2876,-0.2061c-0.1299,-0.0439 -0.3843,-0.0664 -0.7622,-0.0664l0.0884,-0.2773l3.9409,0l-0.0811,0.2773c-0.3291,-0.0049 -0.5723,0.0293 -0.729,0.1045c-0.231,0.0996 -0.4004,0.2314 -0.5083,0.3955c-0.1475,0.2197 -0.3096,0.6328 -0.4863,1.2412l-0.7219,2.5031z"/>
                        </g>
                       </g>
                      </g>
                     </g>
                    </g>
                   </g>
                  </g>
                 </g>
                </g>
               </g>
              </g>
             </g>
            </g>
           </g>
          </g>
         </g>
        </g>
       </g>
      </g>
     </g>
    </g>
   </g>
  </g>
  <g id="svg_284">
   <g id="svg_285">
    <g id="svg_286">
     <g id="svg_287">
      <g id="svg_288">
       <g id="svg_289">
        <g id="svg_290">
         <g id="svg_291">
          <g id="svg_292">
           <g id="svg_293">
            <g id="svg_294">
             <g id="svg_295">
              <g id="svg_296">
               <g id="svg_297">
                <g id="svg_298">
                 <g id="svg_299">
                  <g id="svg_300">
                   <g id="svg_301">
                    <g id="svg_302">
                     <g id="svg_303">
                      <g id="svg_304">
                       <defs>
                        <rect height="16.697" width="15.125" y="0.2607" x="59.4365" id="SVGID_00000068655780626595119690000013707125135546821251_"/>
                       </defs>
                       <clipPath id="SVGID_00000070085320237138760870000005893627056689642914_">
                        <use id="svg_305" xlink:href="#SVGID_00000068655780626595119690000013707125135546821251_"/>
                       </clipPath>
                       <g id="svg_306" clip-path="url(#SVGID_00000070085320237138760870000005893627056689642914_)">
                        <g id="svg_307">
                         <path id="svg_308" d="m63.2435,4.0387l7.6064,0l-0.8193,2.6914l-0.2808,0c0.0933,-0.3936 0.1401,-0.7451 0.1401,-1.0537c0,-0.3643 -0.1108,-0.6387 -0.332,-0.8223c-0.1675,-0.1396 -0.5981,-0.21 -1.2925,-0.21l-0.79,0l-1.9795,6.9805c-0.251,0.877 -0.3765,1.418 -0.3765,1.6221c0,0.1895 0.0786,0.3447 0.2363,0.4668c0.1572,0.1221 0.4355,0.1836 0.8345,0.1836l0.3398,0l-0.0889,0.2764l-4.3569,0l0.0811,-0.2764l0.1919,0c0.3843,0 0.6797,-0.0625 0.8862,-0.1875c0.1431,-0.084 0.272,-0.2373 0.3877,-0.459s0.2769,-0.6914 0.4839,-1.4092l2.0752,-7.1973l-0.5981,0c-0.5762,0 -1.04,0.0752 -1.3921,0.2246c-0.3521,0.1494 -0.6362,0.3662 -0.853,0.6504s-0.394,0.6875 -0.5317,1.2109l-0.2734,0l0.7016,-2.6913z"/>
                        </g>
                       </g>
                      </g>
                     </g>
                    </g>
                   </g>
                  </g>
                 </g>
                </g>
               </g>
              </g>
             </g>
            </g>
           </g>
          </g>
         </g>
        </g>
       </g>
      </g>
     </g>
    </g>
   </g>
  </g>
 </g>
</svg>